<svg id="Layer_2" data-name="Layer 2" xmlns="http://www.w3.org/2000/svg" width="364" height="384.669" viewBox="0 0 364 384.669">
  <g id="Layer_1" data-name="Layer 1">
    <g id="Group_75" data-name="Group 75" transform="translate(0)">
      <circle id="Ellipse_130" data-name="Ellipse 130" cx="29.835" cy="29.835" r="29.835" transform="translate(48.998 44.745)" fill="#000a2b"/>
      <circle id="Ellipse_131" data-name="Ellipse 131" cx="29.835" cy="29.835" r="29.835" transform="translate(61.666 72.898)" fill="#000a2b"/>
      <circle id="Ellipse_132" data-name="Ellipse 132" cx="29.835" cy="29.835" r="29.835" transform="translate(142.627 43.838)" fill="#000a2b"/>
      <circle id="Ellipse_133" data-name="Ellipse 133" cx="12.975" cy="12.975" r="12.975" transform="translate(61.866 107.699)" fill="#e6a07e"/>
      <circle id="Ellipse_134" data-name="Ellipse 134" cx="7.422" cy="7.422" r="7.422" transform="translate(67.419 113.252)" fill="#df734d"/>
      <circle id="Ellipse_135" data-name="Ellipse 135" cx="12.975" cy="12.975" r="12.975" transform="translate(178.135 90.532)" fill="#e6a07e"/>
      <rect id="Rectangle_198" data-name="Rectangle 198" width="10.986" height="26.124" rx="2.9" transform="translate(328.505 375.408) rotate(167.9)" fill="#df734d"/>
      <circle id="Ellipse_136" data-name="Ellipse 136" cx="7.422" cy="7.422" r="7.422" transform="translate(183.688 96.085)" fill="#df734d"/>
      <rect id="Rectangle_199" data-name="Rectangle 199" width="32.852" height="97.594" rx="8.66" transform="matrix(0.95, -0.313, 0.313, 0.95, 110.668, 124.846)" fill="#df734d"/>
      <rect id="Rectangle_200" data-name="Rectangle 200" width="116.215" height="152.377" rx="58" transform="translate(62.632 38.101) rotate(-9.3)" fill="#e6a07e"/>
      <circle id="Ellipse_137" data-name="Ellipse 137" cx="38.925" cy="38.925" r="38.925" transform="translate(43.271)" fill="#001635"/>
      <circle id="Ellipse_138" data-name="Ellipse 138" cx="29.221" cy="29.221" r="29.221" transform="translate(104.542 2.723)" fill="#001635"/>
      <circle id="Ellipse_139" data-name="Ellipse 139" cx="19.93" cy="19.93" r="19.93" transform="translate(153.052 26.244)" fill="#001635"/>
      <path id="Path_90" data-name="Path 90" d="M190.753,178.791,214.6,333.518H93.576L79.116,215.607a58.775,58.775,0,1,1,111.637-36.816Z" transform="translate(31.5 46.338)" fill="#ffcb05"/>
      <rect id="Rectangle_201" data-name="Rectangle 201" width="30.302" height="124.412" rx="15" transform="matrix(-0.202, -0.979, 0.979, -0.202, 13.781, 264.061)" fill="#ffcb05"/>
      <rect id="Rectangle_202" data-name="Rectangle 202" width="30.302" height="124.412" rx="15" transform="matrix(0.581, 0.814, -0.814, 0.581, 101.298, 171.473)" fill="#ffcb05"/>
      <rect id="Rectangle_203" data-name="Rectangle 203" width="10.986" height="26.124" rx="2.9" transform="translate(111.883 180.185) rotate(-153.59)" fill="#df734d"/>
      <rect id="Rectangle_204" data-name="Rectangle 204" width="14.737" height="50.619" rx="7" transform="translate(99.254 200.533) rotate(-119.88)" fill="#e6a07e"/>
      <rect id="Rectangle_205" data-name="Rectangle 205" width="30.302" height="124.412" rx="15" transform="translate(296.625 253.517) rotate(126.47)" fill="#ffcb05"/>
      <rect id="Rectangle_206" data-name="Rectangle 206" width="30.302" height="124.412" rx="15" transform="translate(333.743 347.022) rotate(154.81)" fill="#ffcb05"/>
      <rect id="Rectangle_207" data-name="Rectangle 207" width="14.737" height="50.619" rx="7" transform="matrix(-0.697, 0.717, -0.717, -0.697, 352.154, 362.27)" fill="#e6a07e"/>
      <rect id="Rectangle_208" data-name="Rectangle 208" width="30.302" height="47.682" rx="15" transform="matrix(-0.697, 0.717, -0.717, -0.697, 364, 362.942)" fill="#e6a07e"/>
      <path id="Path_92" data-name="Path 92" d="M121.887,105.54a11.921,11.921,0,0,1-11.867,12.014" transform="translate(42.845 35.331)" fill="none" stroke="#000" stroke-linecap="round" stroke-miterlimit="10" stroke-width="4"/>
      <g id="Group_74" data-name="Group 74" transform="translate(59.419 61.135)">
        <circle id="Ellipse_140" data-name="Ellipse 140" cx="36.429" cy="36.429" r="36.429" transform="translate(3.101 3.114)" fill="#fff" opacity="0.11"/>
        <path id="Path_93" data-name="Path 93" d="M116.15,70.466a39.513,39.513,0,1,0-25.363,52.741,6.114,6.114,0,0,0-.347,5.34l17.634,43.13a6.146,6.146,0,0,0,11.387-4.632l-17.594-43.157a6.154,6.154,0,0,0-4-3.564A39.553,39.553,0,0,0,116.15,70.466ZM92.122,116.253A33.372,33.372,0,1,1,110.45,72.762,33.372,33.372,0,0,1,92.122,116.253Z" transform="translate(-40.017 -45.808)"/>
      </g>
      <rect id="Rectangle_209" data-name="Rectangle 209" width="30.302" height="47.682" rx="15" transform="translate(113.44 201.355) rotate(-119.88)" fill="#e6a07e"/>
      <circle id="Ellipse_141" data-name="Ellipse 141" cx="10.666" cy="10.666" r="10.666" transform="translate(87.83 90.012)" fill="#001635"/>
      <circle id="Ellipse_142" data-name="Ellipse 142" cx="6.755" cy="6.755" r="6.755" transform="translate(145.537 82.456)" fill="#001635"/>
    </g>
  </g>
</svg>
