<svg xmlns="http://www.w3.org/2000/svg" width="368" height="470.881" viewBox="0 0 368 470.881">
  <g id="Group_59" data-name="Group 59" transform="translate(-485 -2307.12)">
    <circle id="Ellipse_82" data-name="Ellipse 82" cx="34.658" cy="34.658" r="34.658" transform="translate(632.955 2359.518) rotate(11)" fill="#000a2b"/>
    <circle id="Ellipse_83" data-name="Ellipse 83" cx="34.658" cy="34.658" r="34.658" transform="translate(641.489 2394.366) rotate(11)" fill="#000a2b"/>
    <circle id="Ellipse_84" data-name="Ellipse 84" cx="34.658" cy="34.658" r="34.658" transform="translate(740.121 2378.216) rotate(11)" fill="#000a2b"/>
    <circle id="Ellipse_85" data-name="Ellipse 85" cx="15.073" cy="15.073" r="15.073" transform="translate(634.169 2434.299) rotate(11)" fill="#e6a07e"/>
    <circle id="Ellipse_86" data-name="Ellipse 86" cx="8.622" cy="8.622" r="8.622" transform="translate(639.27 2441.862) rotate(11)" fill="#df734d"/>
    <circle id="Ellipse_87" data-name="Ellipse 87" cx="15.073" cy="15.073" r="15.073" transform="translate(770.622 2439.181) rotate(11)" fill="#e6a07e"/>
    <circle id="Ellipse_88" data-name="Ellipse 88" cx="8.622" cy="8.622" r="8.622" transform="translate(775.723 2446.744) rotate(11)" fill="#df734d"/>
    <rect id="Rectangle_121" data-name="Rectangle 121" width="38.162" height="113.37" rx="8.66" transform="translate(710.84 2458.529)" fill="#df734d"/>
    <rect id="Rectangle_122" data-name="Rectangle 122" width="135.002" height="177.01" rx="67.501" transform="translate(649.542 2355.062) rotate(1.14)" fill="#e6a07e"/>
    <circle id="Ellipse_89" data-name="Ellipse 89" cx="45.218" cy="45.218" r="45.218" transform="translate(635.968 2307.12) rotate(11)" fill="#001635"/>
    <rect id="Rectangle_123" data-name="Rectangle 123" width="78.929" height="119.014" rx="5.66" transform="translate(485 2382.732)" fill="#f6e6e8"/>
    <rect id="Rectangle_124" data-name="Rectangle 124" width="72.432" height="99.879" rx="5.66" transform="translate(488.241 2396.983)" fill="#b41e49"/>
    <circle id="Ellipse_90" data-name="Ellipse 90" cx="33.944" cy="33.944" r="33.944" transform="translate(705.251 2323.225) rotate(11)" fill="#001635"/>
    <circle id="Ellipse_91" data-name="Ellipse 91" cx="23.152" cy="23.152" r="23.152" transform="translate(755.604 2360.405) rotate(11)" fill="#001635"/>
    <g id="Group_42" data-name="Group 42" transform="translate(665.315 2417.258) rotate(11)">
      <circle id="Ellipse_92" data-name="Ellipse 92" cx="7.846" cy="7.846" r="7.846" transform="translate(0 17.755)" fill="#001635"/>
      <circle id="Ellipse_93" data-name="Ellipse 93" cx="7.846" cy="7.846" r="7.846" transform="translate(65.547)" fill="#001635"/>
    </g>
    <path id="Path_64" data-name="Path 64" d="M249.929,209.16V353.481H113.47V209.16a68.23,68.23,0,0,1,136.459,0Z" transform="translate(547.485 2400.591)" fill="#ffcb05"/>
    <path id="Subtraction_5" data-name="Subtraction 5" d="M-3343.284,24.424h-133.063a68.592,68.592,0,0,1-1.7-15.214V0h136.459V9.21a68.577,68.577,0,0,1-1.7,15.213Z" transform="translate(4139 2753.576)" fill="#173c55"/>
    <rect id="Rectangle_127" data-name="Rectangle 127" width="35.2" height="144.523" rx="17.6" transform="matrix(-0.825, -0.566, 0.566, -0.825, 619.153, 2685.531)" fill="#ffcb05"/>
    <path id="Subtraction_6" data-name="Subtraction 6" d="M-3489.408,132.738h-35.575l-18.4-116.016a11.275,11.275,0,0,1,2.026-8.447,11.276,11.276,0,0,1,7.406-4.54l12.346-1.958a11.474,11.474,0,0,1,1.791-.142,11.354,11.354,0,0,1,7.323,2.691,11.35,11.35,0,0,1,3.874,6.883l19.078,120.32a11.577,11.577,0,0,1,.127,1.207Z" transform="translate(4139 2645.262)" fill="#ffcb05"/>
    <path id="Path_70" data-name="Path 70" d="M154.315,176.076l-31.556,46.071L93.73,202.205l31.556-46.04a17.6,17.6,0,0,1,29.029,19.911Z" transform="translate(536.615 2404.77)" fill="#ffcb05"/>
    <path id="Subtraction_4" data-name="Subtraction 4" d="M-3290.448,122.9h-35.2l-.854-111.28a11.274,11.274,0,0,1,3.262-8.051,11.275,11.275,0,0,1,8-3.386l12.5-.1h.089a11.278,11.278,0,0,1,7.991,3.292,11.279,11.279,0,0,1,3.357,7.971l.857,111.55Z" transform="translate(4139 2655.1)" fill="#ffcb05"/>
    <rect id="Rectangle_139" data-name="Rectangle 139" width="35.2" height="144.523" rx="17.6" transform="matrix(0.887, -0.461, 0.461, 0.887, 755.103, 2562.994)" fill="#ffcb05"/>
    <line id="Line_8" data-name="Line 8" y1="11.211" x2="20.795" transform="translate(709.408 2496.236) rotate(11)" fill="none" stroke="#000" stroke-linecap="round" stroke-miterlimit="10" stroke-width="4"/>
    <rect id="Rectangle_145" data-name="Rectangle 145" width="13.413" height="35.185" transform="matrix(0.566, -0.825, 0.825, 0.566, 622.765, 2618.002)" fill="#d9ad0a"/>
    <path id="Path_71" data-name="Path 71" d="M132.98,242.907s-5.536-49.622-68.338-47.838S27.751,110.82,27.751,110.82" transform="translate(497.365 2384.01)" fill="none" stroke="#b41e49" stroke-linecap="round" stroke-miterlimit="10" stroke-width="3"/>
    <path id="Path_72" data-name="Path 72" d="M127.022,210.165l-22.686,33.091a17.6,17.6,0,1,1-29.029-19.911L97.993,190.27Z" transform="translate(524.769 2427.761)" fill="#cfe3ed"/>
  </g>
</svg>
