<svg xmlns="http://www.w3.org/2000/svg" width="1273" height="724.081" viewBox="0 0 1273 724.081">
  <g id="Group_57" data-name="Group 57" transform="translate(-170 -173.578)">
    <g id="Group_52" data-name="Group 52" transform="translate(122 -125)">
      <g id="Layer_2" data-name="Layer 2" transform="translate(1187 365.578)">
        <g id="Layer_1" data-name="Layer 1" transform="translate(0 0)">
          <ellipse id="Ellipse_22" data-name="Ellipse 22" cx="53.505" cy="53.505" rx="53.505" ry="53.505" transform="translate(15.561 13.411)" fill="#602d82"/>
          <rect id="Rectangle_37" data-name="Rectangle 37" width="3.081" height="15.386" transform="translate(67.648 3.25) rotate(16.48)" fill="#602d82"/>
          <ellipse id="Ellipse_23" data-name="Ellipse 23" cx="2.316" cy="7.693" rx="2.316" ry="7.693" transform="translate(60.534 4.441) rotate(-73.52)" fill="#602d82"/>
          <rect id="Rectangle_38" data-name="Rectangle 38" width="3.081" height="15.386" transform="translate(65.727 115.215) rotate(-12.61)" fill="#602d82"/>
          <ellipse id="Ellipse_24" data-name="Ellipse 24" cx="7.693" cy="2.316" rx="7.693" ry="2.316" transform="translate(62.085 128.562) rotate(-12.61)" fill="#602d82"/>
          <rect id="Rectangle_39" data-name="Rectangle 39" width="3.081" height="15.386" transform="translate(3.405 65.745) rotate(-72.13)" fill="#602d82"/>
          <ellipse id="Ellipse_25" data-name="Ellipse 25" cx="7.693" cy="2.316" rx="7.693" ry="2.316" transform="translate(0 71.464) rotate(-72.13)" fill="#602d82"/>
          <rect id="Rectangle_40" data-name="Rectangle 40" width="3.081" height="15.386" transform="translate(115.967 67.19) rotate(-112.12)" fill="#602d82"/>
          <ellipse id="Ellipse_26" data-name="Ellipse 26" cx="2.316" cy="7.693" rx="2.316" ry="7.693" transform="translate(123.916 54.323) rotate(-22.12)" fill="#602d82"/>
          <rect id="Rectangle_41" data-name="Rectangle 41" width="3.081" height="15.386" transform="translate(21.697 21.395) rotate(-45)" fill="#602d82"/>
          <ellipse id="Ellipse_27" data-name="Ellipse 27" cx="7.693" cy="2.316" rx="7.693" ry="2.316" transform="translate(16.075 24.934) rotate(-45)" fill="#602d82"/>
          <rect id="Rectangle_42" data-name="Rectangle 42" width="3.081" height="15.386" transform="translate(105.11 102.902) rotate(-45)" fill="#602d82"/>
          <ellipse id="Ellipse_28" data-name="Ellipse 28" cx="7.693" cy="2.316" rx="7.693" ry="2.316" transform="translate(109.196 116.138) rotate(-45)" fill="#602d82"/>
          <rect id="Rectangle_43" data-name="Rectangle 43" width="3.081" height="15.386" transform="translate(104.945 32.28) rotate(-135)" fill="#602d82"/>
          <ellipse id="Ellipse_29" data-name="Ellipse 29" cx="2.316" cy="7.693" rx="2.316" ry="7.693" transform="translate(107.267 17.322) rotate(-45)" fill="#602d82"/>
          <rect id="Rectangle_44" data-name="Rectangle 44" width="3.081" height="15.386" transform="translate(19.608 113.79) rotate(-135)" fill="#602d82"/>
          <ellipse id="Ellipse_30" data-name="Ellipse 30" cx="2.316" cy="7.693" rx="2.316" ry="7.693" transform="translate(12.261 108.524) rotate(-45)" fill="#602d82"/>
          <rect id="Rectangle_45" data-name="Rectangle 45" width="2.851" height="14.276" transform="matrix(0.696, -0.718, 0.718, 0.696, 42.773, 11.354)" fill="#602d82"/>
          <ellipse id="Ellipse_31" data-name="Ellipse 31" cx="7.138" cy="2.143" rx="7.138" ry="2.143" transform="matrix(0.696, -0.718, 0.718, 0.696, 37.621, 14.737)" fill="#602d82"/>
          <rect id="Rectangle_46" data-name="Rectangle 46" width="2.851" height="14.276" transform="translate(85.62 108.378) rotate(-22.5)" fill="#602d82"/>
          <ellipse id="Ellipse_32" data-name="Ellipse 32" cx="7.138" cy="2.143" rx="7.138" ry="2.143" transform="translate(84.428 121.182) rotate(-22.5)" fill="#602d82"/>
          <rect id="Rectangle_47" data-name="Rectangle 47" width="2.851" height="14.276" transform="translate(13.341 89.372) rotate(-112.5)" fill="#602d82"/>
          <ellipse id="Ellipse_33" data-name="Ellipse 33" cx="2.143" cy="7.138" rx="2.143" ry="7.138" transform="translate(8.925 82.237) rotate(-22.5)" fill="#602d82"/>
          <rect id="Rectangle_48" data-name="Rectangle 48" width="2.851" height="14.276" transform="translate(108.375 48.401) rotate(-112.5)" fill="#602d82"/>
          <ellipse id="Ellipse_34" data-name="Ellipse 34" cx="2.143" cy="7.138" rx="2.143" ry="7.138" transform="translate(115.701 36.423) rotate(-22.5)" fill="#602d82"/>
          <rect id="Rectangle_49" data-name="Rectangle 49" width="2.838" height="14.21" transform="translate(14.186 44.834) rotate(-67.557)" fill="#602d82"/>
          <ellipse id="Ellipse_35" data-name="Ellipse 35" cx="7.138" cy="2.143" rx="7.138" ry="2.143" transform="translate(10.824 49.871) rotate(-67.5)" fill="#602d82"/>
          <rect id="Rectangle_50" data-name="Rectangle 50" width="2.851" height="14.276" transform="translate(111.336 83.906) rotate(-67.5)" fill="#602d82"/>
          <ellipse id="Ellipse_36" data-name="Ellipse 36" cx="7.138" cy="2.143" rx="7.138" ry="2.143" transform="translate(119.537 93.801) rotate(-67.5)" fill="#602d82"/>
          <rect id="Rectangle_51" data-name="Rectangle 51" width="2.851" height="14.276" transform="translate(85.827 26.534) rotate(-157.5)" fill="#602d82"/>
          <ellipse id="Ellipse_37" data-name="Ellipse 37" cx="2.143" cy="7.138" rx="2.143" ry="7.138" transform="translate(82.518 12.866) rotate(-67.5)" fill="#602d82"/>
          <rect id="Rectangle_52" data-name="Rectangle 52" width="2.851" height="14.276" transform="translate(46.778 121.561) rotate(-157.5)" fill="#602d82"/>
          <ellipse id="Ellipse_38" data-name="Ellipse 38" cx="2.143" cy="7.138" rx="2.143" ry="7.138" transform="translate(38.606 119.65) rotate(-67.5)" fill="#602d82"/>
        </g>
      </g>
      <text id="HIV" transform="translate(1254.5 447.5)" fill="#fff" stroke="#fff" stroke-width="4" font-size="43" font-family="GeosansLight" letter-spacing="0.094em"><tspan x="-32.702" y="0">HIV</tspan></text>
    </g>
    <g id="Group_54" data-name="Group 54" transform="translate(-1017 399)">
      <g id="Layer_2-2" data-name="Layer 2" transform="translate(1187 365.578)">
        <g id="Layer_1-2" data-name="Layer 1" transform="translate(0 0)">
          <ellipse id="Ellipse_22-2" data-name="Ellipse 22" cx="53.505" cy="53.505" rx="53.505" ry="53.505" transform="translate(15.561 13.411)" fill="#602d82"/>
          <rect id="Rectangle_37-2" data-name="Rectangle 37" width="3.081" height="15.386" transform="translate(67.648 3.25) rotate(16.48)" fill="#602d82"/>
          <ellipse id="Ellipse_23-2" data-name="Ellipse 23" cx="2.316" cy="7.693" rx="2.316" ry="7.693" transform="translate(60.534 4.441) rotate(-73.52)" fill="#602d82"/>
          <rect id="Rectangle_38-2" data-name="Rectangle 38" width="3.081" height="15.386" transform="translate(65.727 115.215) rotate(-12.61)" fill="#602d82"/>
          <ellipse id="Ellipse_24-2" data-name="Ellipse 24" cx="7.693" cy="2.316" rx="7.693" ry="2.316" transform="translate(62.085 128.562) rotate(-12.61)" fill="#602d82"/>
          <rect id="Rectangle_39-2" data-name="Rectangle 39" width="3.081" height="15.386" transform="translate(3.405 65.745) rotate(-72.13)" fill="#602d82"/>
          <ellipse id="Ellipse_25-2" data-name="Ellipse 25" cx="7.693" cy="2.316" rx="7.693" ry="2.316" transform="translate(0 71.464) rotate(-72.13)" fill="#602d82"/>
          <rect id="Rectangle_40-2" data-name="Rectangle 40" width="3.081" height="15.386" transform="translate(115.967 67.19) rotate(-112.12)" fill="#602d82"/>
          <ellipse id="Ellipse_26-2" data-name="Ellipse 26" cx="2.316" cy="7.693" rx="2.316" ry="7.693" transform="translate(123.916 54.323) rotate(-22.12)" fill="#602d82"/>
          <rect id="Rectangle_41-2" data-name="Rectangle 41" width="3.081" height="15.386" transform="translate(21.697 21.395) rotate(-45)" fill="#602d82"/>
          <ellipse id="Ellipse_27-2" data-name="Ellipse 27" cx="7.693" cy="2.316" rx="7.693" ry="2.316" transform="translate(16.075 24.934) rotate(-45)" fill="#602d82"/>
          <rect id="Rectangle_42-2" data-name="Rectangle 42" width="3.081" height="15.386" transform="translate(105.11 102.902) rotate(-45)" fill="#602d82"/>
          <ellipse id="Ellipse_28-2" data-name="Ellipse 28" cx="7.693" cy="2.316" rx="7.693" ry="2.316" transform="translate(109.196 116.138) rotate(-45)" fill="#602d82"/>
          <rect id="Rectangle_43-2" data-name="Rectangle 43" width="3.081" height="15.386" transform="translate(104.945 32.28) rotate(-135)" fill="#602d82"/>
          <ellipse id="Ellipse_29-2" data-name="Ellipse 29" cx="2.316" cy="7.693" rx="2.316" ry="7.693" transform="translate(107.267 17.322) rotate(-45)" fill="#602d82"/>
          <rect id="Rectangle_44-2" data-name="Rectangle 44" width="3.081" height="15.386" transform="translate(19.608 113.79) rotate(-135)" fill="#602d82"/>
          <ellipse id="Ellipse_30-2" data-name="Ellipse 30" cx="2.316" cy="7.693" rx="2.316" ry="7.693" transform="translate(12.261 108.524) rotate(-45)" fill="#602d82"/>
          <rect id="Rectangle_45-2" data-name="Rectangle 45" width="2.851" height="14.276" transform="matrix(0.696, -0.718, 0.718, 0.696, 42.773, 11.354)" fill="#602d82"/>
          <ellipse id="Ellipse_31-2" data-name="Ellipse 31" cx="7.138" cy="2.143" rx="7.138" ry="2.143" transform="matrix(0.696, -0.718, 0.718, 0.696, 37.621, 14.737)" fill="#602d82"/>
          <rect id="Rectangle_46-2" data-name="Rectangle 46" width="2.851" height="14.276" transform="translate(85.62 108.378) rotate(-22.5)" fill="#602d82"/>
          <ellipse id="Ellipse_32-2" data-name="Ellipse 32" cx="7.138" cy="2.143" rx="7.138" ry="2.143" transform="translate(84.428 121.182) rotate(-22.5)" fill="#602d82"/>
          <rect id="Rectangle_47-2" data-name="Rectangle 47" width="2.851" height="14.276" transform="translate(13.341 89.372) rotate(-112.5)" fill="#602d82"/>
          <ellipse id="Ellipse_33-2" data-name="Ellipse 33" cx="2.143" cy="7.138" rx="2.143" ry="7.138" transform="translate(8.925 82.237) rotate(-22.5)" fill="#602d82"/>
          <rect id="Rectangle_48-2" data-name="Rectangle 48" width="2.851" height="14.276" transform="translate(108.375 48.401) rotate(-112.5)" fill="#602d82"/>
          <ellipse id="Ellipse_34-2" data-name="Ellipse 34" cx="2.143" cy="7.138" rx="2.143" ry="7.138" transform="translate(115.701 36.423) rotate(-22.5)" fill="#602d82"/>
          <rect id="Rectangle_49-2" data-name="Rectangle 49" width="2.838" height="14.21" transform="translate(14.186 44.834) rotate(-67.557)" fill="#602d82"/>
          <ellipse id="Ellipse_35-2" data-name="Ellipse 35" cx="7.138" cy="2.143" rx="7.138" ry="2.143" transform="translate(10.824 49.871) rotate(-67.5)" fill="#602d82"/>
          <rect id="Rectangle_50-2" data-name="Rectangle 50" width="2.851" height="14.276" transform="translate(111.336 83.906) rotate(-67.5)" fill="#602d82"/>
          <ellipse id="Ellipse_36-2" data-name="Ellipse 36" cx="7.138" cy="2.143" rx="7.138" ry="2.143" transform="translate(119.537 93.801) rotate(-67.5)" fill="#602d82"/>
          <rect id="Rectangle_51-2" data-name="Rectangle 51" width="2.851" height="14.276" transform="translate(85.827 26.534) rotate(-157.5)" fill="#602d82"/>
          <ellipse id="Ellipse_37-2" data-name="Ellipse 37" cx="2.143" cy="7.138" rx="2.143" ry="7.138" transform="translate(82.518 12.866) rotate(-67.5)" fill="#602d82"/>
          <rect id="Rectangle_52-2" data-name="Rectangle 52" width="2.851" height="14.276" transform="translate(46.778 121.561) rotate(-157.5)" fill="#602d82"/>
          <ellipse id="Ellipse_38-2" data-name="Ellipse 38" cx="2.143" cy="7.138" rx="2.143" ry="7.138" transform="translate(38.606 119.65) rotate(-67.5)" fill="#602d82"/>
        </g>
      </g>
      <text id="HIV-2" data-name="HIV" transform="translate(1254.5 447.5)" fill="#fff" stroke="#fff" stroke-width="4" font-size="43" font-family="GeosansLight" letter-spacing="0.094em"><tspan x="-32.702" y="0">HIV</tspan></text>
    </g>
    <g id="Group_55" data-name="Group 55" transform="translate(-936 -192)">
      <g id="Layer_2-3" data-name="Layer 2" transform="translate(1187 365.578)">
        <g id="Layer_1-3" data-name="Layer 1" transform="translate(0 0)">
          <ellipse id="Ellipse_22-3" data-name="Ellipse 22" cx="53.505" cy="53.505" rx="53.505" ry="53.505" transform="translate(15.561 13.411)" fill="#602d82"/>
          <rect id="Rectangle_37-3" data-name="Rectangle 37" width="3.081" height="15.386" transform="translate(67.648 3.25) rotate(16.48)" fill="#602d82"/>
          <ellipse id="Ellipse_23-3" data-name="Ellipse 23" cx="2.316" cy="7.693" rx="2.316" ry="7.693" transform="translate(60.534 4.441) rotate(-73.52)" fill="#602d82"/>
          <rect id="Rectangle_38-3" data-name="Rectangle 38" width="3.081" height="15.386" transform="translate(65.727 115.215) rotate(-12.61)" fill="#602d82"/>
          <ellipse id="Ellipse_24-3" data-name="Ellipse 24" cx="7.693" cy="2.316" rx="7.693" ry="2.316" transform="translate(62.085 128.562) rotate(-12.61)" fill="#602d82"/>
          <rect id="Rectangle_39-3" data-name="Rectangle 39" width="3.081" height="15.386" transform="translate(3.405 65.745) rotate(-72.13)" fill="#602d82"/>
          <ellipse id="Ellipse_25-3" data-name="Ellipse 25" cx="7.693" cy="2.316" rx="7.693" ry="2.316" transform="translate(0 71.464) rotate(-72.13)" fill="#602d82"/>
          <rect id="Rectangle_40-3" data-name="Rectangle 40" width="3.081" height="15.386" transform="translate(115.967 67.19) rotate(-112.12)" fill="#602d82"/>
          <ellipse id="Ellipse_26-3" data-name="Ellipse 26" cx="2.316" cy="7.693" rx="2.316" ry="7.693" transform="translate(123.916 54.323) rotate(-22.12)" fill="#602d82"/>
          <rect id="Rectangle_41-3" data-name="Rectangle 41" width="3.081" height="15.386" transform="translate(21.697 21.395) rotate(-45)" fill="#602d82"/>
          <ellipse id="Ellipse_27-3" data-name="Ellipse 27" cx="7.693" cy="2.316" rx="7.693" ry="2.316" transform="translate(16.075 24.934) rotate(-45)" fill="#602d82"/>
          <rect id="Rectangle_42-3" data-name="Rectangle 42" width="3.081" height="15.386" transform="translate(105.11 102.902) rotate(-45)" fill="#602d82"/>
          <ellipse id="Ellipse_28-3" data-name="Ellipse 28" cx="7.693" cy="2.316" rx="7.693" ry="2.316" transform="translate(109.196 116.138) rotate(-45)" fill="#602d82"/>
          <rect id="Rectangle_43-3" data-name="Rectangle 43" width="3.081" height="15.386" transform="translate(104.945 32.28) rotate(-135)" fill="#602d82"/>
          <ellipse id="Ellipse_29-3" data-name="Ellipse 29" cx="2.316" cy="7.693" rx="2.316" ry="7.693" transform="translate(107.267 17.322) rotate(-45)" fill="#602d82"/>
          <rect id="Rectangle_44-3" data-name="Rectangle 44" width="3.081" height="15.386" transform="translate(19.608 113.79) rotate(-135)" fill="#602d82"/>
          <ellipse id="Ellipse_30-3" data-name="Ellipse 30" cx="2.316" cy="7.693" rx="2.316" ry="7.693" transform="translate(12.261 108.524) rotate(-45)" fill="#602d82"/>
          <rect id="Rectangle_45-3" data-name="Rectangle 45" width="2.851" height="14.276" transform="matrix(0.696, -0.718, 0.718, 0.696, 42.773, 11.354)" fill="#602d82"/>
          <ellipse id="Ellipse_31-3" data-name="Ellipse 31" cx="7.138" cy="2.143" rx="7.138" ry="2.143" transform="matrix(0.696, -0.718, 0.718, 0.696, 37.621, 14.737)" fill="#602d82"/>
          <rect id="Rectangle_46-3" data-name="Rectangle 46" width="2.851" height="14.276" transform="translate(85.62 108.378) rotate(-22.5)" fill="#602d82"/>
          <ellipse id="Ellipse_32-3" data-name="Ellipse 32" cx="7.138" cy="2.143" rx="7.138" ry="2.143" transform="translate(84.428 121.182) rotate(-22.5)" fill="#602d82"/>
          <rect id="Rectangle_47-3" data-name="Rectangle 47" width="2.851" height="14.276" transform="translate(13.341 89.372) rotate(-112.5)" fill="#602d82"/>
          <ellipse id="Ellipse_33-3" data-name="Ellipse 33" cx="2.143" cy="7.138" rx="2.143" ry="7.138" transform="translate(8.925 82.237) rotate(-22.5)" fill="#602d82"/>
          <rect id="Rectangle_48-3" data-name="Rectangle 48" width="2.851" height="14.276" transform="translate(108.375 48.401) rotate(-112.5)" fill="#602d82"/>
          <ellipse id="Ellipse_34-3" data-name="Ellipse 34" cx="2.143" cy="7.138" rx="2.143" ry="7.138" transform="translate(115.701 36.423) rotate(-22.5)" fill="#602d82"/>
          <rect id="Rectangle_49-3" data-name="Rectangle 49" width="2.838" height="14.21" transform="translate(14.186 44.834) rotate(-67.557)" fill="#602d82"/>
          <ellipse id="Ellipse_35-3" data-name="Ellipse 35" cx="7.138" cy="2.143" rx="7.138" ry="2.143" transform="translate(10.824 49.871) rotate(-67.5)" fill="#602d82"/>
          <rect id="Rectangle_50-3" data-name="Rectangle 50" width="2.851" height="14.276" transform="translate(111.336 83.906) rotate(-67.5)" fill="#602d82"/>
          <ellipse id="Ellipse_36-3" data-name="Ellipse 36" cx="7.138" cy="2.143" rx="7.138" ry="2.143" transform="translate(119.537 93.801) rotate(-67.5)" fill="#602d82"/>
          <rect id="Rectangle_51-3" data-name="Rectangle 51" width="2.851" height="14.276" transform="translate(85.827 26.534) rotate(-157.5)" fill="#602d82"/>
          <ellipse id="Ellipse_37-3" data-name="Ellipse 37" cx="2.143" cy="7.138" rx="2.143" ry="7.138" transform="translate(82.518 12.866) rotate(-67.5)" fill="#602d82"/>
          <rect id="Rectangle_52-3" data-name="Rectangle 52" width="2.851" height="14.276" transform="translate(46.778 121.561) rotate(-157.5)" fill="#602d82"/>
          <ellipse id="Ellipse_38-3" data-name="Ellipse 38" cx="2.143" cy="7.138" rx="2.143" ry="7.138" transform="translate(38.606 119.65) rotate(-67.5)" fill="#602d82"/>
        </g>
      </g>
      <text id="HIV-3" data-name="HIV" transform="translate(1254.5 447.5)" fill="#fff" stroke="#fff" stroke-width="4" font-size="43" font-family="GeosansLight" letter-spacing="0.094em"><tspan x="-32.702" y="0">HIV</tspan></text>
    </g>
    <g id="Group_56" data-name="Group 56" transform="translate(-99 175)">
      <g id="Layer_2-4" data-name="Layer 2" transform="translate(1187 365.578)">
        <g id="Layer_1-4" data-name="Layer 1" transform="translate(0 0)">
          <ellipse id="Ellipse_22-4" data-name="Ellipse 22" cx="53.505" cy="53.505" rx="53.505" ry="53.505" transform="translate(15.561 13.411)" fill="#602d82"/>
          <rect id="Rectangle_37-4" data-name="Rectangle 37" width="3.081" height="15.386" transform="translate(67.648 3.25) rotate(16.48)" fill="#602d82"/>
          <ellipse id="Ellipse_23-4" data-name="Ellipse 23" cx="2.316" cy="7.693" rx="2.316" ry="7.693" transform="translate(60.534 4.441) rotate(-73.52)" fill="#602d82"/>
          <rect id="Rectangle_38-4" data-name="Rectangle 38" width="3.081" height="15.386" transform="translate(65.727 115.215) rotate(-12.61)" fill="#602d82"/>
          <ellipse id="Ellipse_24-4" data-name="Ellipse 24" cx="7.693" cy="2.316" rx="7.693" ry="2.316" transform="translate(62.085 128.562) rotate(-12.61)" fill="#602d82"/>
          <rect id="Rectangle_39-4" data-name="Rectangle 39" width="3.081" height="15.386" transform="translate(3.405 65.745) rotate(-72.13)" fill="#602d82"/>
          <ellipse id="Ellipse_25-4" data-name="Ellipse 25" cx="7.693" cy="2.316" rx="7.693" ry="2.316" transform="translate(0 71.464) rotate(-72.13)" fill="#602d82"/>
          <rect id="Rectangle_40-4" data-name="Rectangle 40" width="3.081" height="15.386" transform="translate(115.967 67.19) rotate(-112.12)" fill="#602d82"/>
          <ellipse id="Ellipse_26-4" data-name="Ellipse 26" cx="2.316" cy="7.693" rx="2.316" ry="7.693" transform="translate(123.916 54.323) rotate(-22.12)" fill="#602d82"/>
          <rect id="Rectangle_41-4" data-name="Rectangle 41" width="3.081" height="15.386" transform="translate(21.697 21.395) rotate(-45)" fill="#602d82"/>
          <ellipse id="Ellipse_27-4" data-name="Ellipse 27" cx="7.693" cy="2.316" rx="7.693" ry="2.316" transform="translate(16.075 24.934) rotate(-45)" fill="#602d82"/>
          <rect id="Rectangle_42-4" data-name="Rectangle 42" width="3.081" height="15.386" transform="translate(105.11 102.902) rotate(-45)" fill="#602d82"/>
          <ellipse id="Ellipse_28-4" data-name="Ellipse 28" cx="7.693" cy="2.316" rx="7.693" ry="2.316" transform="translate(109.196 116.138) rotate(-45)" fill="#602d82"/>
          <rect id="Rectangle_43-4" data-name="Rectangle 43" width="3.081" height="15.386" transform="translate(104.945 32.28) rotate(-135)" fill="#602d82"/>
          <ellipse id="Ellipse_29-4" data-name="Ellipse 29" cx="2.316" cy="7.693" rx="2.316" ry="7.693" transform="translate(107.267 17.322) rotate(-45)" fill="#602d82"/>
          <rect id="Rectangle_44-4" data-name="Rectangle 44" width="3.081" height="15.386" transform="translate(19.608 113.79) rotate(-135)" fill="#602d82"/>
          <ellipse id="Ellipse_30-4" data-name="Ellipse 30" cx="2.316" cy="7.693" rx="2.316" ry="7.693" transform="translate(12.261 108.524) rotate(-45)" fill="#602d82"/>
          <rect id="Rectangle_45-4" data-name="Rectangle 45" width="2.851" height="14.276" transform="matrix(0.696, -0.718, 0.718, 0.696, 42.773, 11.354)" fill="#602d82"/>
          <ellipse id="Ellipse_31-4" data-name="Ellipse 31" cx="7.138" cy="2.143" rx="7.138" ry="2.143" transform="matrix(0.696, -0.718, 0.718, 0.696, 37.621, 14.737)" fill="#602d82"/>
          <rect id="Rectangle_46-4" data-name="Rectangle 46" width="2.851" height="14.276" transform="translate(85.62 108.378) rotate(-22.5)" fill="#602d82"/>
          <ellipse id="Ellipse_32-4" data-name="Ellipse 32" cx="7.138" cy="2.143" rx="7.138" ry="2.143" transform="translate(84.428 121.182) rotate(-22.5)" fill="#602d82"/>
          <rect id="Rectangle_47-4" data-name="Rectangle 47" width="2.851" height="14.276" transform="translate(13.341 89.372) rotate(-112.5)" fill="#602d82"/>
          <ellipse id="Ellipse_33-4" data-name="Ellipse 33" cx="2.143" cy="7.138" rx="2.143" ry="7.138" transform="translate(8.925 82.237) rotate(-22.5)" fill="#602d82"/>
          <rect id="Rectangle_48-4" data-name="Rectangle 48" width="2.851" height="14.276" transform="translate(108.375 48.401) rotate(-112.5)" fill="#602d82"/>
          <ellipse id="Ellipse_34-4" data-name="Ellipse 34" cx="2.143" cy="7.138" rx="2.143" ry="7.138" transform="translate(115.701 36.423) rotate(-22.5)" fill="#602d82"/>
          <rect id="Rectangle_49-4" data-name="Rectangle 49" width="2.838" height="14.21" transform="translate(14.186 44.834) rotate(-67.557)" fill="#602d82"/>
          <ellipse id="Ellipse_35-4" data-name="Ellipse 35" cx="7.138" cy="2.143" rx="7.138" ry="2.143" transform="translate(10.824 49.871) rotate(-67.5)" fill="#602d82"/>
          <rect id="Rectangle_50-4" data-name="Rectangle 50" width="2.851" height="14.276" transform="translate(111.336 83.906) rotate(-67.5)" fill="#602d82"/>
          <ellipse id="Ellipse_36-4" data-name="Ellipse 36" cx="7.138" cy="2.143" rx="7.138" ry="2.143" transform="translate(119.537 93.801) rotate(-67.5)" fill="#602d82"/>
          <rect id="Rectangle_51-4" data-name="Rectangle 51" width="2.851" height="14.276" transform="translate(85.827 26.534) rotate(-157.5)" fill="#602d82"/>
          <ellipse id="Ellipse_37-4" data-name="Ellipse 37" cx="2.143" cy="7.138" rx="2.143" ry="7.138" transform="translate(82.518 12.866) rotate(-67.5)" fill="#602d82"/>
          <rect id="Rectangle_52-4" data-name="Rectangle 52" width="2.851" height="14.276" transform="translate(46.778 121.561) rotate(-157.5)" fill="#602d82"/>
          <ellipse id="Ellipse_38-4" data-name="Ellipse 38" cx="2.143" cy="7.138" rx="2.143" ry="7.138" transform="translate(38.606 119.65) rotate(-67.5)" fill="#602d82"/>
        </g>
      </g>
      <text id="HIV-4" data-name="HIV" transform="translate(1254.5 447.5)" fill="#fff" stroke="#fff" stroke-width="4" font-size="43" font-family="GeosansLight" letter-spacing="0.094em"><tspan x="-32.702" y="0">HIV</tspan></text>
    </g>
  </g>
</svg>
