<svg xmlns="http://www.w3.org/2000/svg" width="345.137" height="470.881" viewBox="0 0 345.137 470.881">
  <g id="Layer_2" data-name="Layer 2" transform="translate(2.72)">
    <g id="Layer_1" data-name="Layer 1" transform="translate(-2.72 0)">
      <g id="Group_112" data-name="Group 112" transform="translate(0)">
        <circle id="Ellipse_203" data-name="Ellipse 203" cx="35.042" cy="35.042" r="35.042" transform="translate(79.742 51.364)" fill="#000a2b"/>
        <circle id="Ellipse_204" data-name="Ellipse 204" cx="35.042" cy="35.042" r="35.042" transform="translate(89.071 86.421)" fill="#000a2b"/>
        <circle id="Ellipse_205" data-name="Ellipse 205" cx="35.042" cy="35.042" r="35.042" transform="translate(188.443 68.093)" fill="#000a2b"/>
        <circle id="Ellipse_206" data-name="Ellipse 206" cx="15.24" cy="15.24" r="15.24" transform="translate(86.171 123.847)" fill="#e6a07e"/>
        <circle id="Ellipse_207" data-name="Ellipse 207" cx="8.717" cy="8.717" r="8.717" transform="translate(92.693 130.369)" fill="#df734d"/>
        <circle id="Ellipse_208" data-name="Ellipse 208" cx="15.24" cy="15.24" r="15.24" transform="translate(224.191 126.026)" fill="#e6a07e"/>
        <circle id="Ellipse_209" data-name="Ellipse 209" cx="8.717" cy="8.717" r="8.717" transform="translate(230.713 132.548)" fill="#df734d"/>
        <rect id="Rectangle_295" data-name="Rectangle 295" width="38.585" height="114.628" rx="8.66" transform="translate(151.896 161.178)" fill="#df734d"/>
        <path id="Path_125" data-name="Path 125" d="M32.3,79.629C26.045,64.86,16.136,54.841,10.147,57.349s-5.77,16.588.47,31.358c4.61,10.975,11.179,19.159,16.729,21.778l29.115,69.128,7.228-3.042-28.52-67.623C38.51,103.947,37.475,92.078,32.3,79.629Z" transform="translate(5.554 27.349)" fill="#aabfce"/>
        <rect id="Rectangle_296" data-name="Rectangle 296" width="136.499" height="178.973" rx="68" transform="translate(102.931 41.063)" fill="#e6a07e"/>
        <circle id="Ellipse_210" data-name="Ellipse 210" cx="45.719" cy="45.719" r="45.719" transform="translate(79.742)" fill="#001635"/>
        <circle id="Ellipse_211" data-name="Ellipse 211" cx="34.321" cy="34.321" r="34.321" transform="translate(152.241 13.107)" fill="#001635"/>
        <circle id="Ellipse_212" data-name="Ellipse 212" cx="23.408" cy="23.408" r="23.408" transform="translate(205.894 47.961)" fill="#001635"/>
        <path id="Path_126" data-name="Path 126" d="M214.833,53.215,185.8,115.3l12.182,5.691L173.19,173.989l6.695,3.136,24.788-53.01L219.38,92.632,242.522,43.15a20.821,20.821,0,0,0-27.689,10.066Z" transform="translate(102.616 23.391)" fill="#aabfce"/>
        <path id="Path_127" data-name="Path 127" d="M199.973,220.307V366.2H62V220.307a68.987,68.987,0,0,1,137.973,0Z" transform="translate(39.473 85.931)" fill="#ffcb05"/>
        <rect id="Rectangle_297" data-name="Rectangle 297" width="35.591" height="146.126" rx="17.795" transform="translate(122.981 241.656) rotate(57.31)" fill="#ffcb05"/>
        <rect id="Rectangle_298" data-name="Rectangle 298" width="35.591" height="146.126" rx="17.795" transform="translate(35.27 347.543) rotate(-166.65)" fill="#ffcb05"/>
        <rect id="Rectangle_299" data-name="Rectangle 299" width="17.309" height="41.815" rx="8.655" transform="translate(53.796 223.416) rotate(-161.66)" fill="#e6a07e"/>
        <rect id="Rectangle_300" data-name="Rectangle 300" width="18.501" height="56.005" rx="9" transform="translate(68.244 200.242) rotate(163.3)" fill="#e6a07e"/>
        <rect id="Rectangle_301" data-name="Rectangle 301" width="35.591" height="146.126" rx="17.795" transform="translate(340.151 319.469) rotate(122.69)" fill="#ffcb05"/>
        <rect id="Rectangle_302" data-name="Rectangle 302" width="35.591" height="146.126" rx="17.795" transform="translate(271.14 204.248) rotate(-13.35)" fill="#ffcb05"/>
        <rect id="Rectangle_303" data-name="Rectangle 303" width="17.309" height="41.815" rx="8.655" transform="translate(273.192 182.62) rotate(-18.34)" fill="#e6a07e"/>
        <rect id="Rectangle_304" data-name="Rectangle 304" width="18.501" height="56.005" rx="9" transform="translate(288.005 145.515) rotate(16.7)" fill="#e6a07e"/>
        <g id="Group_111" data-name="Group 111" transform="translate(128.143 118.14)">
          <circle id="Ellipse_213" data-name="Ellipse 213" cx="7.933" cy="7.933" r="7.933" fill="#001635"/>
          <circle id="Ellipse_214" data-name="Ellipse 214" cx="7.933" cy="7.933" r="7.933" transform="translate(68.673)" fill="#001635"/>
        </g>
        <rect id="Rectangle_305" data-name="Rectangle 305" width="138.02" height="18.752" transform="translate(101.395 452.129)" fill="#173c55"/>
        <path id="Path_128" data-name="Path 128" d="M102.24,135.769a19.943,19.943,0,0,1,33.709,0,32.5,32.5,0,0,0,15.4-23.3H86.89A32.5,32.5,0,0,0,102.24,135.769Z" transform="translate(53.608 63.869)"/>
        <path id="Path_129" data-name="Path 129" d="M113.535,121.41a19.959,19.959,0,0,0-16.855,9.282,32.549,32.549,0,0,0,33.709,0,19.975,19.975,0,0,0-16.855-9.282Z" transform="translate(59.167 68.946)" fill="#b41e49"/>
      </g>
    </g>
  </g>
</svg>
