<svg xmlns="http://www.w3.org/2000/svg" width="295.179" height="399.455" viewBox="0 0 295.179 399.455">
  <g id="Group_106" data-name="Group 106" transform="translate(-473 -3655)">
    <g id="Group_105" data-name="Group 105" transform="translate(473 3655)">
      <rect id="Rectangle_259" data-name="Rectangle 259" width="10.87" height="25.847" rx="5.435" transform="matrix(0.432, -0.902, 0.902, 0.432, 193.07, 342.996)" fill="#df734d"/>
      <circle id="Ellipse_173" data-name="Ellipse 173" cx="29.518" cy="29.518" r="29.518" transform="translate(70.493 43.267)" fill="#000a2b"/>
      <circle id="Ellipse_174" data-name="Ellipse 174" cx="29.518" cy="29.518" r="29.518" transform="translate(78.352 72.798)" fill="#000a2b"/>
      <circle id="Ellipse_175" data-name="Ellipse 175" cx="29.518" cy="29.518" r="29.518" transform="translate(162.059 57.359)" fill="#000a2b"/>
      <circle id="Ellipse_176" data-name="Ellipse 176" cx="12.837" cy="12.837" r="12.837" transform="translate(75.908 104.324)" fill="#e6a07e"/>
      <circle id="Ellipse_177" data-name="Ellipse 177" cx="7.343" cy="7.343" r="7.343" transform="translate(81.403 109.818)" fill="#df734d"/>
      <circle id="Ellipse_178" data-name="Ellipse 178" cx="12.837" cy="12.837" r="12.837" transform="translate(192.172 106.16)" fill="#e6a07e"/>
      <rect id="Rectangle_260" data-name="Rectangle 260" width="10.87" height="25.847" rx="5.435" transform="matrix(-0.432, -0.902, 0.902, -0.432, 78.831, 353.472)" fill="#df734d"/>
      <circle id="Ellipse_179" data-name="Ellipse 179" cx="7.343" cy="7.343" r="7.343" transform="translate(197.666 111.654)" fill="#df734d"/>
      <rect id="Rectangle_261" data-name="Rectangle 261" width="32.503" height="96.558" rx="8.66" transform="translate(131.273 135.77)" fill="#df734d"/>
      <rect id="Rectangle_262" data-name="Rectangle 262" width="114.982" height="150.76" rx="57.491" transform="translate(90.027 34.59)" fill="#e6a07e"/>
      <circle id="Ellipse_180" data-name="Ellipse 180" cx="38.512" cy="38.512" r="38.512" transform="translate(70.493)" fill="#001635"/>
      <circle id="Ellipse_181" data-name="Ellipse 181" cx="28.911" cy="28.911" r="28.911" transform="translate(131.55 11.041)" fill="#001635"/>
      <circle id="Ellipse_182" data-name="Ellipse 182" cx="19.718" cy="19.718" r="19.718" transform="translate(176.759 40.401)" fill="#001635"/>
      <path id="Path_105" data-name="Path 105" d="M179.454,209.432V332.325H63.23V209.432a58.112,58.112,0,0,1,116.224,0Z" transform="translate(25.555 48.532)" fill="#ffcb05"/>
      <rect id="Rectangle_265" data-name="Rectangle 265" width="29.98" height="123.091" rx="14.99" transform="translate(108.164 205.785) rotate(60.67)" fill="#ffcb05"/>
      <rect id="Rectangle_266" data-name="Rectangle 266" width="29.98" height="123.091" rx="14.99" transform="matrix(0.885, -0.466, 0.466, 0.885, 0, 264.966)" fill="#ffcb05"/>
      <rect id="Rectangle_267" data-name="Rectangle 267" width="14.581" height="50.082" rx="7.29" transform="translate(56.628 361.664) rotate(-81.86)" fill="#e6a07e"/>
      <rect id="Rectangle_268" data-name="Rectangle 268" width="29.98" height="47.176" rx="14.99" transform="translate(67.191 370.951) rotate(-81.86)" fill="#e6a07e"/>
      <rect id="Rectangle_269" data-name="Rectangle 269" width="29.98" height="123.091" rx="14.99" transform="translate(294.381 266.681) rotate(119.33)" fill="#ffcb05"/>
      <rect id="Rectangle_270" data-name="Rectangle 270" width="29.98" height="123.091" rx="14.99" transform="matrix(-0.885, -0.466, 0.466, -0.885, 237.828, 374.518)" fill="#ffcb05"/>
      <rect id="Rectangle_271" data-name="Rectangle 271" width="14.581" height="50.082" rx="7.29" transform="translate(189.03 369.398) rotate(-98.14)" fill="#e6a07e"/>
      <rect id="Rectangle_272" data-name="Rectangle 272" width="29.98" height="47.176" rx="14.99" transform="translate(181.354 378.261) rotate(-98.14)" fill="#e6a07e"/>
      <path id="Path_111" data-name="Path 111" d="M115.321,133.706a19.032,19.032,0,0,1-8.03-1.8,2.644,2.644,0,0,1,2.232-4.794,13.736,13.736,0,0,0,18.252-6.6,2.641,2.641,0,1,1,4.794,2.219,19.1,19.1,0,0,1-17.249,10.975Z" transform="translate(39.197 38.16)" fill="#000a2b"/>
      <path id="Path_112" data-name="Path 112" d="M98.47,82.282a1.994,1.994,0,0,1-1.4-.541,11.015,11.015,0,0,0-15.571,0,1.981,1.981,0,0,1-2.8-2.8,14.964,14.964,0,0,1,21.132,0,1.968,1.968,0,0,1,0,2.8A1.994,1.994,0,0,1,98.47,82.282Z" transform="translate(30.346 23.917)" fill="#000a2b"/>
      <path id="Path_113" data-name="Path 113" d="M139.47,82.292a1.994,1.994,0,0,1-1.4-.581,11.015,11.015,0,0,0-15.571,0,1.981,1.981,0,0,1-2.8-2.8,14.964,14.964,0,0,1,21.132,0,1.968,1.968,0,0,1,0,2.8,1.994,1.994,0,0,1-1.36.581Z" transform="translate(43.496 23.908)" fill="#000a2b"/>
      <rect id="Rectangle_273" data-name="Rectangle 273" width="115" height="18" transform="translate(88 381.455)" fill="#173c55"/>
    </g>
    <g id="Layer_2" data-name="Layer 2" transform="translate(702.746 3655)">
      <g id="Layer_1" data-name="Layer 1" transform="translate(0 0)">
        <path id="Path_114" data-name="Path 114" d="M40.973,38.981a23.365,23.365,0,0,0,5.894-15.552h0A23.428,23.428,0,0,0,23.428,0h0A23.439,23.439,0,0,0,0,23.439H0A23.323,23.323,0,0,0,5.9,38.981a34.031,34.031,0,0,1,7.551,14.095H33.381a34.031,34.031,0,0,1,7.593-14.095Z" transform="translate(0 0)" fill="#ffe600"/>
        <path id="Path_115" data-name="Path 115" d="M31.787,59.586V58.537a31.618,31.618,0,0,1,1.049-7.907H12.91a32.111,32.111,0,0,1,1.049,7.907v1.049a8.977,8.977,0,0,0,17.954,0Z" transform="translate(0.629 2.466)" fill="#394d5c"/>
      </g>
    </g>
  </g>
</svg>
