<svg xmlns="http://www.w3.org/2000/svg" width="304.619" height="386.494" viewBox="0 0 304.619 386.494">
  <g id="Group_114" data-name="Group 114" transform="translate(-252.961 -2952.568)">
    <g id="Group_91" data-name="Group 91" transform="translate(14 -240)">
      <rect id="Rectangle_212" data-name="Rectangle 212" width="10.916" height="25.957" rx="5.458" transform="matrix(-0.432, -0.902, 0.902, -0.432, 318.668, 3551.22)" fill="#df734d"/>
      <rect id="Rectangle_89" data-name="Rectangle 89" width="10.916" height="25.957" rx="5.458" transform="matrix(0.432, -0.902, 0.902, 0.432, 439.119, 3541.727)" fill="#df734d"/>
      <path id="Path_41" data-name="Path 41" d="M185,208.86V332.278H68.28V208.86a58.36,58.36,0,1,1,116.72,0Z" transform="translate(266.678 3246.784)" fill="#3ebdd3"/>
      <rect id="Rectangle_99" data-name="Rectangle 99" width="30.108" height="123.617" rx="15.054" transform="translate(540.856 3465.069) rotate(119.33)" fill="#3ebdd3"/>
      <rect id="Rectangle_100" data-name="Rectangle 100" width="30.108" height="123.617" rx="15.054" transform="matrix(-0.885, -0.466, 0.466, -0.885, 484.071, 3573.361)" fill="#3ebdd3"/>
      <rect id="Rectangle_101" data-name="Rectangle 101" width="14.643" height="50.296" rx="7.322" transform="translate(435.072 3568.219) rotate(-98.14)" fill="#e6a07e"/>
      <rect id="Rectangle_102" data-name="Rectangle 102" width="30.108" height="47.378" rx="15.054" transform="translate(427.338 3577.134) rotate(-98.14)" fill="#e6a07e"/>
      <rect id="Rectangle_213" data-name="Rectangle 213" width="30.109" height="123.617" rx="15.054" transform="translate(348.114 3403.374) rotate(60.67)" fill="#3ebdd3"/>
      <rect id="Rectangle_214" data-name="Rectangle 214" width="30.109" height="123.618" rx="15.054" transform="translate(238.961 3462.267) rotate(-27.77)" fill="#3ebdd3"/>
      <rect id="Rectangle_215" data-name="Rectangle 215" width="14.643" height="50.296" rx="7.322" transform="translate(296.337 3559.955) rotate(-81.86)" fill="#e6a07e"/>
      <rect id="Rectangle_216" data-name="Rectangle 216" width="30.109" height="47.378" rx="15.054" transform="translate(306.961 3568.712) rotate(-81.86)" fill="#e6a07e"/>
      <rect id="Rectangle_217" data-name="Rectangle 217" width="10.916" height="25.957" rx="5.458" transform="matrix(0.432, -0.902, 0.902, 0.432, 439.119, 3541.727)" fill="#df734d"/>
      <path id="Path_95" data-name="Path 95" d="M185,208.86V332.278H68.28V208.86a58.36,58.36,0,1,1,116.72,0Z" transform="translate(266.678 3246.784)" fill="#3ebdd3"/>
      <rect id="Rectangle_220" data-name="Rectangle 220" width="30.108" height="123.617" rx="15.054" transform="translate(540.856 3465.069) rotate(119.33)" fill="#3ebdd3"/>
      <rect id="Rectangle_221" data-name="Rectangle 221" width="30.108" height="123.617" rx="15.054" transform="matrix(-0.885, -0.466, 0.466, -0.885, 484.071, 3573.361)" fill="#3ebdd3"/>
      <rect id="Rectangle_222" data-name="Rectangle 222" width="14.643" height="50.296" rx="7.322" transform="translate(435.072 3568.219) rotate(-98.14)" fill="#e6a07e"/>
      <rect id="Rectangle_223" data-name="Rectangle 223" width="30.108" height="47.378" rx="15.054" transform="translate(427.338 3577.134) rotate(-98.14)" fill="#e6a07e"/>
      <rect id="Rectangle_224" data-name="Rectangle 224" width="30.109" height="123.617" rx="15.054" transform="translate(348.114 3403.374) rotate(60.67)" fill="#3ebdd3"/>
      <rect id="Rectangle_225" data-name="Rectangle 225" width="30.109" height="47.378" rx="15.054" transform="translate(306.961 3568.712) rotate(-81.86)" fill="#e6a07e"/>
      <ellipse id="Ellipse_59" data-name="Ellipse 59" cx="30.585" cy="30.585" rx="30.585" ry="30.585" transform="matrix(0.985, 0.174, -0.174, 0.985, 415.7, 3239.032)" fill="#000a2b"/>
      <ellipse id="Ellipse_60" data-name="Ellipse 60" cx="30.585" cy="30.585" rx="30.585" ry="30.585" transform="matrix(0.985, 0.174, -0.174, 0.985, 406.984, 3269.469)" fill="#000a2b"/>
      <ellipse id="Ellipse_61" data-name="Ellipse 61" cx="30.585" cy="30.585" rx="30.585" ry="30.585" transform="matrix(0.985, 0.174, -0.174, 0.985, 320.568, 3251.897)" fill="#000a2b"/>
      <circle id="Ellipse_62" data-name="Ellipse 62" cx="13.301" cy="13.301" r="13.301" transform="matrix(0.985, 0.174, -0.174, 0.985, 440.544, 3305.234)" fill="#e6a07e"/>
      <ellipse id="Ellipse_63" data-name="Ellipse 63" cx="7.609" cy="7.609" rx="7.609" ry="7.609" transform="matrix(0.985, 0.174, -0.174, 0.985, 445.162, 3311.829)" fill="#df734d"/>
      <circle id="Ellipse_64" data-name="Ellipse 64" cx="13.301" cy="13.301" r="13.301" transform="matrix(0.985, 0.174, -0.174, 0.985, 320.068, 3304.931)" fill="#e6a07e"/>
      <ellipse id="Ellipse_65" data-name="Ellipse 65" cx="7.609" cy="7.609" rx="7.609" ry="7.609" transform="matrix(0.985, 0.174, -0.174, 0.985, 324.686, 3311.526)" fill="#df734d"/>
      <rect id="Rectangle_90" data-name="Rectangle 90" width="33.677" height="100.046" rx="16.839" transform="translate(375.565 3310.37)" fill="#df734d"/>
      <rect id="Rectangle_91" data-name="Rectangle 91" width="119.135" height="156.206" rx="59.568" transform="translate(448.701 3391.263) rotate(-178.95)" fill="#e6a07e"/>
      <ellipse id="Ellipse_66" data-name="Ellipse 66" cx="39.904" cy="39.904" rx="39.904" ry="39.904" transform="matrix(0.985, 0.174, -0.174, 0.985, 399.478, 3192.568)" fill="#001635"/>
      <ellipse id="Ellipse_67" data-name="Ellipse 67" cx="29.955" cy="29.955" rx="29.955" ry="29.955" transform="matrix(0.985, 0.174, -0.174, 0.985, 354.199, 3204.594)" fill="#001635"/>
      <ellipse id="Ellipse_68" data-name="Ellipse 68" cx="20.431" cy="20.431" rx="20.431" ry="20.431" transform="matrix(0.985, 0.174, -0.174, 0.985, 324.233, 3235.841)" fill="#001635"/>
      <g id="Group_32" data-name="Group 32" transform="translate(357.568 3295.091)">
        <circle id="Ellipse_69" data-name="Ellipse 69" cx="6.924" cy="6.924" r="6.924" transform="translate(60.212 9)" fill="#001635"/>
        <circle id="Ellipse_70" data-name="Ellipse 70" cx="6.924" cy="6.924" r="6.924" transform="translate(0 9.319)" fill="#001635"/>
      </g>
      <path id="Path_47" data-name="Path 47" d="M139.295,129.086a12.206,12.206,0,0,0-15.395-7.855" transform="translate(222.853 3297.558) rotate(-21)" fill="none" stroke="#000" stroke-linecap="round" stroke-miterlimit="10" stroke-width="4"/>
    </g>
    <line id="Line_22" data-name="Line 22" x1="45" y2="30" transform="translate(510.5 3090.5)" fill="none" stroke="#000" stroke-linecap="round" stroke-width="3"/>
  </g>
</svg>
