<svg xmlns="http://www.w3.org/2000/svg" width="707" height="243.35" viewBox="0 0 707 243.35">
  <g id="Group_29" data-name="Group 29" transform="translate(-302 -2576)">
    <g id="Layer_2" data-name="Layer 2" transform="translate(488 2596)">
      <g id="Layer_1" data-name="Layer 1">
        <rect id="Rectangle_70" data-name="Rectangle 70" width="24.61" height="73.11" rx="8.66" transform="translate(131.93 61.02) rotate(-90)" fill="#df734d"/>
        <path id="Path_33" data-name="Path 33" d="M169.47,50c0,20.33-18.74,37.05-42,37.77H98.85c-23.94,0-43.53-17-43.53-37.79,0-10.39,4.9-19.84,12.79-26.69a46.9,46.9,0,0,1,30.74-11.1h27.09C149.88,12.19,169.47,29.2,169.47,50Z" fill="#e6a07e"/>
        <circle id="Ellipse_53" data-name="Ellipse 53" cx="29.16" cy="29.16" r="29.16" transform="translate(29.14 0)" fill="#001635"/>
        <circle id="Ellipse_54" data-name="Ellipse 54" cx="14.93" cy="14.93" r="14.93" transform="translate(100.21 65.84)" fill="#000a2b"/>
        <path id="Path_34" data-name="Path 34" d="M224.45,12.21H317.5v73H224.45c-24.21,0-44-16.43-44-36.51,0-10,4.95-19.16,12.92-25.78a48.8,48.8,0,0,1,31.08-10.71Z" fill="#ffcb05"/>
        <circle id="Ellipse_55" data-name="Ellipse 55" cx="22.35" cy="22.35" r="22.35" transform="translate(54.7 42.6)" fill="#000a2b"/>
        <circle id="Ellipse_56" data-name="Ellipse 56" cx="19.79" cy="19.79" r="19.79" transform="translate(75.56 58.42)" fill="#000a2b"/>
        <circle id="Ellipse_57" data-name="Ellipse 57" cx="21.89" cy="21.89" r="21.89" transform="translate(37.49 39.24)" fill="#001635"/>
        <path id="Path_35" data-name="Path 35" d="M128.56,59.39a9.73,9.73,0,1,1-19.45,0c0-.33,0-.65,0-1h4.21a5.231,5.231,0,0,0-.09,1,5.56,5.56,0,1,0,11.11,0,5.229,5.229,0,0,0-.09-1h4.21A4.193,4.193,0,0,1,128.56,59.39Z" fill="#e6a07e"/>
        <path id="Path_36" data-name="Path 36" d="M124.39,59.39a5.56,5.56,0,1,1-11.11,0,5.229,5.229,0,0,1,.09-1H124.3a5.23,5.23,0,0,1,.09,1Z" fill="#df734d"/>
        <path id="Path_37" data-name="Path 37" d="M469.35,25.56H357.11c-7.84-7.89-19.57-13-32.69-13.32H222.31v73h279.4V57.92a32.36,32.36,0,0,0-32.36-32.36Z" fill="#3ebdd3"/>
        <rect id="Rectangle_71" data-name="Rectangle 71" width="22.7" height="101.33" rx="11.35" transform="translate(197.88 69.77) rotate(-90)" fill="#ffcb05"/>
        <rect id="Rectangle_72" data-name="Rectangle 72" width="22.7" height="70.54" rx="11.35" transform="matrix(0.571, -0.821, 0.821, 0.571, 232.973, 30.151)" fill="#ffcb05"/>
        <rect id="Rectangle_73" data-name="Rectangle 73" width="11.04" height="24.12" rx="3.88" transform="translate(253.201 21.747) rotate(120)" fill="#e6a07e"/>
        <rect id="Rectangle_74" data-name="Rectangle 74" width="28.56" height="22.7" rx="7.98" transform="translate(239.342 30.275) rotate(-171.86)" fill="#e6a07e"/>
        <rect id="Rectangle_75" data-name="Rectangle 75" width="2.13" height="14.14" rx="1.06" transform="translate(115.14 15.43)" fill="#001635"/>
        <g id="Group_23" data-name="Group 23">
          <path id="Path_38" data-name="Path 38" d="M108.63,12.19v8A6.75,6.75,0,0,1,101.9,27H99.34a6.75,6.75,0,0,1-6.74-6.73V12.6c-1.35.17-2.68.38-4,.66V27A10.11,10.11,0,0,0,98.7,37.12h3.83A10.12,10.12,0,0,0,112.62,27V12.19Z" fill="#86cfeb"/>
          <path id="Path_39" data-name="Path 39" d="M99.34,27h2.56a6.75,6.75,0,0,0,6.73-6.73v-8H98.85a49.451,49.451,0,0,0-6.25.41V20.3A6.75,6.75,0,0,0,99.34,27Z" fill="#c0e1ee"/>
        </g>
        <path id="Path_40" data-name="Path 40" d="M140.72,28.45a1.66,1.66,0,0,0,.61-.12,1.51,1.51,0,0,0,.77-2,36.3,36.3,0,0,1-3-12.38c-1-.28-2-.52-3-.74a39.39,39.39,0,0,0,3.3,14.33,1.5,1.5,0,0,0,1.32.91Z"/>
        <rect id="Rectangle_76" data-name="Rectangle 76" width="521" height="73.84" rx="23.42" transform="translate(0 85.22)" fill="#cfe3ed"/>
        <rect id="Rectangle_77" data-name="Rectangle 77" width="521" height="53.36" transform="translate(0 120.49)" fill="#65352e"/>
        <rect id="Rectangle_78" data-name="Rectangle 78" width="18" height="64.29" transform="translate(0 159.06)" fill="#65352e"/>
        <rect id="Rectangle_79" data-name="Rectangle 79" width="18" height="64.29" transform="translate(503 159.06)" fill="#65352e"/>
      </g>
    </g>
    <g id="Group_24" data-name="Group 24" transform="translate(28 -42)">
      <ellipse id="Ellipse_58" data-name="Ellipse 58" cx="16.5" cy="40.5" rx="16.5" ry="40.5" transform="translate(332 2638)" fill="#fdbd3f"/>
      <rect id="Rectangle_80" data-name="Rectangle 80" width="148" height="148" transform="translate(274 2713)" fill="#65352e"/>
      <path id="Polygon_1" data-name="Polygon 1" d="M42,0,84,60H0Z" transform="translate(306 2618)" fill="#fff79c"/>
      <g id="Rectangle_81" data-name="Rectangle 81" transform="translate(292 2731)" fill="none" stroke="#9a5f5b" stroke-width="5">
        <rect width="112" height="112" stroke="none"/>
        <rect x="2.5" y="2.5" width="107" height="107" fill="none"/>
      </g>
      <line id="Line_2" data-name="Line 2" y2="112" transform="translate(348.5 2731.5)" fill="none" stroke="#9a5f5b" stroke-width="5"/>
    </g>
  </g>
</svg>
