<svg xmlns="http://www.w3.org/2000/svg" width="428.152" height="903.573" viewBox="0 0 428.152 903.573">
  <g id="Group_141" data-name="Group 141" transform="translate(2492.924 -3253)">
    <g id="Layer_2" data-name="Layer 2" transform="translate(-2492.924 3253)">
      <g id="Layer_1" data-name="Layer 1">
        <ellipse id="Ellipse_59" data-name="Ellipse 59" cx="41.828" cy="41.828" rx="41.828" ry="41.828" transform="translate(209.955 58.727)" fill="#000a2b"/>
        <ellipse id="Ellipse_60" data-name="Ellipse 60" cx="41.828" cy="41.828" rx="41.828" ry="41.828" transform="translate(205.444 101.79)" fill="#000a2b"/>
        <ellipse id="Ellipse_61" data-name="Ellipse 61" cx="41.828" cy="41.828" rx="41.828" ry="41.828" transform="translate(84.883 98.646)" fill="#000a2b"/>
        <ellipse id="Ellipse_62" data-name="Ellipse 62" cx="18.191" cy="18.191" rx="18.191" ry="18.191" transform="translate(259.137 141.99)" fill="#e6a07e"/>
        <ellipse id="Ellipse_63" data-name="Ellipse 63" cx="10.405" cy="10.405" rx="10.405" ry="10.405" transform="translate(266.923 149.775)" fill="#df734d"/>
        <ellipse id="Ellipse_64" data-name="Ellipse 64" cx="18.191" cy="18.191" rx="18.191" ry="18.191" transform="translate(96.804 170.193)" fill="#e6a07e"/>
        <rect id="Rectangle_89" data-name="Rectangle 89" width="15.402" height="36.625" rx="7.701" transform="matrix(-0.432, -0.902, 0.902, -0.432, 111.659, 501.261)" fill="#df734d"/>
        <ellipse id="Ellipse_65" data-name="Ellipse 65" cx="10.405" cy="10.405" rx="10.405" ry="10.405" transform="translate(104.59 177.978)" fill="#df734d"/>
        <rect id="Rectangle_90" data-name="Rectangle 90" width="46.057" height="136.824" rx="8.66" transform="translate(185.401 181.478)" fill="#df734d"/>
        <rect id="Rectangle_91" data-name="Rectangle 91" width="162.931" height="213.629" rx="81.465" transform="translate(290.554 255.919) rotate(171.05)" fill="#e6a07e"/>
        <ellipse id="Ellipse_66" data-name="Ellipse 66" cx="54.573" cy="54.573" rx="54.573" ry="54.573" transform="translate(177.073)" fill="#001635"/>
        <ellipse id="Ellipse_67" data-name="Ellipse 67" cx="40.967" cy="40.967" rx="40.967" ry="40.967" transform="translate(118.944 26.949)" fill="#001635"/>
        <ellipse id="Ellipse_68" data-name="Ellipse 68" cx="27.941" cy="27.941" rx="27.941" ry="27.941" transform="translate(86.006 76.151)" fill="#001635"/>
        <g id="Group_32" data-name="Group 32" transform="translate(150.928 130.087)">
          <ellipse id="Ellipse_69" data-name="Ellipse 69" cx="9.47" cy="9.47" rx="9.47" ry="9.47" transform="translate(80.979)" fill="#001635"/>
          <ellipse id="Ellipse_70" data-name="Ellipse 70" cx="9.47" cy="9.47" rx="9.47" ry="9.47" transform="translate(0 12.745)" fill="#001635"/>
        </g>
        <path id="Path_41" data-name="Path 41" d="M68.28,232.845V406.987H232.971V232.845a82.345,82.345,0,0,0-164.691,0Z" transform="translate(58.693 131.14)" fill="#3ebdd3"/>
        <path id="Path_42" data-name="Path 42" d="M68.28,287.25v11.117a82.345,82.345,0,1,0,164.691,0V287.25Z" transform="translate(58.693 250.316)" fill="#173c55"/>
        <g id="Group_35" data-name="Group 35" transform="translate(91.34 584.316)">
          <g id="Group_33" data-name="Group 33" transform="translate(139.707)">
            <rect id="Rectangle_92" data-name="Rectangle 92" width="44.298" height="271.366" transform="translate(0)" fill="#173c55"/>
            <path id="Path_43" data-name="Path 43" d="M111.821,457.23H49.22v47.891h96.288v-14.2A33.687,33.687,0,0,0,111.821,457.23Z" transform="translate(-49.22 -185.864)" fill="#002342"/>
            <path id="Path_44" data-name="Path 44" d="M111.821,457.23H82.907A33.687,33.687,0,0,0,49.22,490.917v14.2h96.288v-14.2A33.687,33.687,0,0,0,111.821,457.23Z" transform="translate(-49.22 -185.864)" fill="#000a2b"/>
          </g>
          <g id="Group_34" data-name="Group 34" transform="translate(0)">
            <rect id="Rectangle_93" data-name="Rectangle 93" width="44.298" height="271.366" transform="translate(52.009)" fill="#173c55"/>
            <path id="Path_45" data-name="Path 45" d="M0,47.891H96.288V0h-62.6A33.687,33.687,0,0,0,0,33.687Z" transform="translate(0 271.347)" fill="#002342"/>
            <path id="Path_46" data-name="Path 46" d="M0,47.891H96.288v-14.2A33.687,33.687,0,0,0,62.6,0H33.687A33.687,33.687,0,0,0,0,33.687Z" transform="translate(0 271.347)" fill="#000a2b"/>
          </g>
        </g>
        <rect id="Rectangle_94" data-name="Rectangle 94" width="42.483" height="174.422" rx="21.241" transform="translate(240.315 334.739) rotate(-72.48)" fill="#3ebdd3"/>
        <rect id="Rectangle_95" data-name="Rectangle 95" width="42.483" height="174.423" rx="21.241" transform="translate(428.152 365.204) rotate(139.63)" fill="#3ebdd3"/>
        <g id="Group_36" data-name="Group 36" transform="translate(233.115 203.197)">
          <rect id="Rectangle_96" data-name="Rectangle 96" width="15.402" height="36.625" rx="7.701" transform="matrix(0.903, -0.43, 0.43, 0.903, 44.969, 7.625)" fill="#df734d"/>
          <rect id="Rectangle_97" data-name="Rectangle 97" width="20.661" height="70.967" rx="10.331" transform="translate(16.998 33.119) rotate(-59.18)" fill="#e6a07e"/>
          <rect id="Rectangle_98" data-name="Rectangle 98" width="42.476" height="66.839" rx="21.238" transform="translate(0 36.535) rotate(-59.331)" fill="#e6a07e"/>
        </g>
        <rect id="Rectangle_99" data-name="Rectangle 99" width="42.483" height="174.422" rx="21.241" transform="translate(153.207 291.844) rotate(60.67)" fill="#3ebdd3"/>
        <rect id="Rectangle_100" data-name="Rectangle 100" width="42.483" height="174.423" rx="21.241" transform="translate(0 375.748) rotate(-27.77)" fill="#3ebdd3"/>
        <rect id="Rectangle_101" data-name="Rectangle 101" width="20.661" height="70.967" rx="10.331" transform="translate(80.151 512.778) rotate(-81.86)" fill="#e6a07e"/>
        <rect id="Rectangle_102" data-name="Rectangle 102" width="42.483" height="66.85" rx="21.241" transform="translate(95.142 525.941) rotate(-81.86)" fill="#e6a07e"/>
        <path id="Path_47" data-name="Path 47" d="M144.954,132.194A16.694,16.694,0,0,0,123.9,121.452" transform="translate(42.617 105.11)" fill="none" stroke="#000" stroke-linecap="round" stroke-miterlimit="10" stroke-width="4"/>
      </g>
    </g>
    <line id="Line_23" data-name="Line 23" x1="45" y2="30" transform="translate(-2181.925 3400.452)" fill="none" stroke="#000" stroke-linecap="round" stroke-width="3"/>
  </g>
</svg>
