<svg xmlns="http://www.w3.org/2000/svg" width="414.074" height="380.329" viewBox="0 0 414.074 380.329">
  <g id="Layer_2" data-name="Layer 2" transform="translate(3.999)">
    <g id="Layer_1" data-name="Layer 1" transform="translate(-3.999 0)">
      <g id="Group_147" data-name="Group 147" transform="translate(0)">
        <circle id="Ellipse_280" data-name="Ellipse 280" cx="27.915" cy="27.915" r="27.915" transform="translate(66.67 47.487)" fill="#000a2b"/>
        <circle id="Ellipse_281" data-name="Ellipse 281" cx="27.915" cy="27.915" r="27.915" transform="translate(74.101 75.414)" fill="#000a2b"/>
        <circle id="Ellipse_282" data-name="Ellipse 282" cx="27.915" cy="27.915" r="27.915" transform="translate(153.262 60.813)" fill="#000a2b"/>
        <circle id="Ellipse_283" data-name="Ellipse 283" cx="12.14" cy="12.14" r="12.14" transform="translate(71.79 105.227)" fill="#e6a07e"/>
        <circle id="Ellipse_284" data-name="Ellipse 284" cx="6.944" cy="6.944" r="6.944" transform="translate(76.986 110.423)" fill="#df734d"/>
        <circle id="Ellipse_285" data-name="Ellipse 285" cx="12.14" cy="12.14" r="12.14" transform="translate(181.739 106.963)" fill="#e6a07e"/>
        <rect id="Rectangle_375" data-name="Rectangle 375" width="10.279" height="24.443" rx="4.12" transform="matrix(-0.432, -0.902, 0.902, -0.432, 74.547, 340.83)" fill="#df734d"/>
        <circle id="Ellipse_286" data-name="Ellipse 286" cx="6.944" cy="6.944" r="6.944" transform="translate(186.935 112.159)" fill="#df734d"/>
        <rect id="Rectangle_376" data-name="Rectangle 376" width="28.352" height="116.406" rx="14.176" transform="translate(244.086 206.256) rotate(107.7)" fill="#3ebdd3"/>
        <rect id="Rectangle_377" data-name="Rectangle 377" width="28.352" height="116.406" rx="14.176" transform="translate(147.835 168.778) rotate(72.91)" fill="#3ebdd3"/>
        <rect id="Rectangle_378" data-name="Rectangle 378" width="30.738" height="91.314" rx="8.66" transform="translate(124.148 134.966)" fill="#df734d"/>
        <rect id="Rectangle_379" data-name="Rectangle 379" width="108.737" height="142.572" rx="54.368" transform="translate(85.142 39.268)" fill="#e6a07e"/>
        <circle id="Ellipse_287" data-name="Ellipse 287" cx="36.421" cy="36.421" r="36.421" transform="translate(66.67 6.57)" fill="#001635"/>
        <circle id="Ellipse_288" data-name="Ellipse 288" cx="27.34" cy="27.34" r="27.34" transform="translate(124.41 17.011)" fill="#001635"/>
        <circle id="Ellipse_289" data-name="Ellipse 289" cx="18.647" cy="18.647" r="18.647" transform="translate(167.163 44.776)" fill="#001635"/>
        <path id="Path_164" data-name="Path 164" d="M173.141,211.535V327.691H63.23V211.536a54.955,54.955,0,1,1,109.911,0Z" transform="translate(20.738 38.987)" fill="#ffcb05"/>
        <rect id="Rectangle_380" data-name="Rectangle 380" width="28.352" height="116.406" rx="14.176" transform="translate(265.248 153.632) rotate(56.95)" fill="#ffcb05"/>
        <rect id="Rectangle_381" data-name="Rectangle 381" width="28.352" height="116.406" rx="14.176" transform="translate(364.635 188.801) rotate(108.08)" fill="#ffcb05"/>
        <rect id="Rectangle_382" data-name="Rectangle 382" width="28.352" height="116.406" rx="14.176" transform="translate(102.311 201.167) rotate(60.67)" fill="#ffcb05"/>
        <rect id="Rectangle_383" data-name="Rectangle 383" width="28.352" height="116.406" rx="14.176" transform="matrix(0.885, -0.466, 0.466, 0.885, 0, 257.138)" fill="#ffcb05"/>
        <rect id="Rectangle_384" data-name="Rectangle 384" width="13.789" height="47.362" rx="6.894" transform="translate(53.553 348.596) rotate(-81.86)" fill="#e6a07e"/>
        <rect id="Rectangle_385" data-name="Rectangle 385" width="28.352" height="44.614" rx="14.176" transform="translate(63.531 357.364) rotate(-81.86)" fill="#e6a07e"/>
        <circle id="Ellipse_290" data-name="Ellipse 290" cx="27.915" cy="27.915" r="27.915" transform="translate(205.02 40.917)" fill="#000a2b"/>
        <circle id="Ellipse_291" data-name="Ellipse 291" cx="27.915" cy="27.915" r="27.915" transform="translate(212.452 68.844)" fill="#000a2b"/>
        <circle id="Ellipse_292" data-name="Ellipse 292" cx="27.915" cy="27.915" r="27.915" transform="translate(291.612 54.244)" fill="#000a2b"/>
        <circle id="Ellipse_293" data-name="Ellipse 293" cx="12.14" cy="12.14" r="12.14" transform="translate(318.041 98.658)" fill="#e6a07e"/>
        <circle id="Ellipse_294" data-name="Ellipse 294" cx="6.944" cy="6.944" r="6.944" transform="translate(323.237 103.853)" fill="#df734d"/>
        <circle id="Ellipse_295" data-name="Ellipse 295" cx="12.14" cy="12.14" r="12.14" transform="translate(208.093 100.394)" fill="#e6a07e"/>
        <rect id="Rectangle_386" data-name="Rectangle 386" width="10.279" height="24.443" rx="4.12" transform="matrix(0.432, -0.902, 0.902, 0.432, 317.508, 323.779)" fill="#df734d"/>
        <circle id="Ellipse_296" data-name="Ellipse 296" cx="6.944" cy="6.944" r="6.944" transform="translate(213.288 105.589)" fill="#df734d"/>
        <rect id="Rectangle_387" data-name="Rectangle 387" width="30.738" height="141.614" rx="15.369" transform="translate(289.976 251.053) rotate(180)" fill="#df734d"/>
        <path id="Path_165" data-name="Path 165" d="M172.33,206.276V322.494H282.241V206.276a54.955,54.955,0,1,0-109.911,0Z" transform="translate(47.903 37.677)" fill="#3ebdd3"/>
        <rect id="Rectangle_388" data-name="Rectangle 388" width="108.737" height="142.572" rx="54.368" transform="translate(328.97 175.271) rotate(180)" fill="#e6a07e"/>
        <circle id="Ellipse_297" data-name="Ellipse 297" cx="36.421" cy="36.421" r="36.421" transform="translate(205.02)" fill="#001635"/>
        <circle id="Ellipse_298" data-name="Ellipse 298" cx="27.34" cy="27.34" r="27.34" transform="translate(262.761 10.442)" fill="#001635"/>
        <circle id="Ellipse_299" data-name="Ellipse 299" cx="18.647" cy="18.647" r="18.647" transform="translate(305.514 38.207)" fill="#001635"/>
        <g id="Group_144" data-name="Group 144" transform="translate(17.888 204.193)">
          <rect id="Rectangle_389" data-name="Rectangle 389" width="13.789" height="47.362" rx="6.894" transform="translate(32.333 0) rotate(27.68)" fill="#e6a07e"/>
          <rect id="Rectangle_390" data-name="Rectangle 390" width="28.352" height="44.614" rx="14.176" transform="translate(20.724 6.485) rotate(27.68)" fill="#e6a07e"/>
          <rect id="Rectangle_391" data-name="Rectangle 391" width="10.279" height="24.443" rx="4.12" transform="translate(32.569 22.398) rotate(-6.03)" fill="#df734d"/>
        </g>
        <rect id="Rectangle_392" data-name="Rectangle 392" width="28.352" height="116.406" rx="14.176" transform="translate(413.288 251.571) rotate(119.33)" fill="#3ebdd3"/>
        <rect id="Rectangle_393" data-name="Rectangle 393" width="28.352" height="116.406" rx="14.176" transform="matrix(-0.885, -0.466, 0.466, -0.885, 359.839, 353.578)" fill="#3ebdd3"/>
        <rect id="Rectangle_394" data-name="Rectangle 394" width="13.789" height="47.362" rx="6.894" transform="translate(313.686 348.729) rotate(-98.14)" fill="#e6a07e"/>
        <rect id="Rectangle_395" data-name="Rectangle 395" width="28.352" height="44.614" rx="14.176" transform="translate(306.427 357.123) rotate(-98.14)" fill="#e6a07e"/>
        <path id="Path_166" data-name="Path 166" d="M134.74,82.423a8.568,8.568,0,0,0-12.14,0" transform="translate(35.521 19.895)" fill="none" stroke="#000" stroke-linecap="round" stroke-miterlimit="10" stroke-width="4"/>
        <path id="Path_167" data-name="Path 167" d="M96.5,78.971a8.593,8.593,0,0,0-12.14,0" transform="translate(25.999 19.038)" fill="none" stroke="#000" stroke-linecap="round" stroke-miterlimit="10" stroke-width="4"/>
        <g id="Group_145" data-name="Group 145" transform="translate(333.175 191.465)">
          <rect id="Rectangle_396" data-name="Rectangle 396" width="13.789" height="47.362" rx="6.894" transform="translate(35.087 45.418) rotate(163.53)" fill="#e6a07e"/>
          <rect id="Rectangle_397" data-name="Rectangle 397" width="28.352" height="44.614" rx="14.176" transform="translate(44.434 51.388) rotate(163.53)" fill="#e6a07e"/>
          <rect id="Rectangle_398" data-name="Rectangle 398" width="10.279" height="24.443" rx="4.12" transform="translate(9.817 45.239) rotate(-162.75)" fill="#df734d"/>
        </g>
        <path id="Path_168" data-name="Path 168" d="M173.141,300.749V293.33H63.23v7.419a53.994,53.994,0,0,0,.412,6.545H172.729A54,54,0,0,0,173.141,300.749Z" transform="translate(20.738 73.036)" fill="#173c55"/>
        <path id="Path_169" data-name="Path 169" d="M282.281,295.479V288.06H172.37v7.419a54.8,54.8,0,0,0,1.6,13.114H280.72A54.819,54.819,0,0,0,282.281,295.479Z" transform="translate(47.913 71.724)" fill="#173c55"/>
        <g id="Group_146" data-name="Group 146" transform="translate(239.33 91.001)">
          <circle id="Ellipse_300" data-name="Ellipse 300" cx="6.32" cy="6.32" r="6.32" transform="translate(0)" fill="#001635"/>
          <circle id="Ellipse_301" data-name="Ellipse 301" cx="6.32" cy="6.32" r="6.32" transform="translate(54.693 0.724)" fill="#001635"/>
        </g>
        <path id="Path_170" data-name="Path 170" d="M124.489,124.63c-3.11,6.657-11.915,9.13-19.659,5.521" transform="translate(31.096 31.031)" fill="none" stroke="#000" stroke-linecap="round" stroke-miterlimit="10" stroke-width="4"/>
        <path id="Path_171" data-name="Path 171" d="M235.519,120.88c-3.11,6.67-11.915,9.13-19.659,5.521" transform="translate(58.741 30.098)" fill="none" stroke="#000" stroke-linecap="round" stroke-miterlimit="10" stroke-width="4"/>
      </g>
    </g>
  </g>
</svg>
