<svg xmlns="http://www.w3.org/2000/svg" width="747" height="450.985" viewBox="0 0 747 450.985">
  <g id="Group_60" data-name="Group 60" transform="translate(-267 -3859)">
    <rect id="Rectangle_105" data-name="Rectangle 105" width="34.54" height="141.811" rx="11.35" transform="matrix(0.796, -0.605, 0.605, 0.796, 362.049, 4125.174)" fill="#ffcb05"/>
    <rect id="Rectangle_106" data-name="Rectangle 106" width="34.981" height="143.652" rx="11.35" transform="translate(436.741 4235.806) rotate(-106.26)" fill="#ffcb05"/>
    <rect id="Rectangle_107" data-name="Rectangle 107" width="16.798" height="57.698" rx="3.88" transform="translate(560.524 4195.691) rotate(-160.07)" fill="#e6a07e"/>
    <rect id="Rectangle_108" data-name="Rectangle 108" width="34.54" height="54.351" rx="7.98" transform="translate(573.474 4185.973) rotate(-160.07)" fill="#e6a07e"/>
    <rect id="Rectangle_109" data-name="Rectangle 109" width="12.523" height="29.777" rx="2.9" transform="matrix(-0.971, 0.238, -0.238, -0.971, 558.084, 4168.697)" fill="#df734d"/>
    <path id="Subtraction_7" data-name="Subtraction 7" d="M-3836.2,19.391h-109.949a80.23,80.23,0,0,1-.67-10.353V0h111.288V9.038a80.37,80.37,0,0,1-.668,10.352Z" transform="translate(4234 4290.594)" fill="#173c55"/>
    <rect id="Rectangle_112" data-name="Rectangle 112" width="37.446" height="111.242" rx="8.66" transform="translate(323.998 4014.52)" fill="#df734d"/>
    <path id="Path_59" data-name="Path 59" d="M68.2,199.288c-30.934,0-56.3-28.514-57.47-63.906V91.834C10.73,55.408,36.6,25.6,68.23,25.6c15.809,0,30.188,7.456,40.611,19.461a71.362,71.362,0,0,1,16.889,46.773v41.219C125.7,169.48,99.818,199.288,68.2,199.288Z" transform="translate(272.596 3872.352)" fill="#e6a07e"/>
    <circle id="Ellipse_72" data-name="Ellipse 72" cx="22.717" cy="22.717" r="22.717" transform="translate(271.23 3966.256)" fill="#000a2b"/>
    <path id="Path_60" data-name="Path 60" d="M124.345,213.679v141.6H13.27v-141.6c0-36.822,25-66.949,55.553-66.949,15.216,0,29.153,7.532,39.226,19.674a74.207,74.207,0,0,1,16.3,47.275Z" transform="translate(273.921 3935.531)" fill="#ffcb05"/>
    <circle id="Ellipse_73" data-name="Ellipse 73" cx="42.513" cy="42.513" r="42.513" transform="translate(267 3880.013)" fill="#000a2b"/>
    <circle id="Ellipse_74" data-name="Ellipse 74" cx="30.112" cy="30.112" r="30.112" transform="translate(267.73 3928.749)" fill="#000a2b"/>
    <circle id="Ellipse_75" data-name="Ellipse 75" cx="33.307" cy="33.307" r="33.307" transform="translate(290.524 3870.823)" fill="#001635"/>
    <path id="Path_61" data-name="Path 61" d="M44.328,108.987a14.8,14.8,0,1,1,0-29.595h1.522V85.8a7.958,7.958,0,0,0-1.522-.137,8.46,8.46,0,1,0,0,16.9,7.956,7.956,0,0,0,1.522-.137v6.406A6.379,6.379,0,0,1,44.328,108.987Z" transform="translate(282.151 3900.405)" fill="#e6a07e"/>
    <path id="Path_62" data-name="Path 62" d="M42.113,100.467a8.46,8.46,0,1,1,0-16.9,7.958,7.958,0,0,1,1.522.137V100.33a7.957,7.957,0,0,1-1.522.137Z" transform="translate(284.365 3902.58)" fill="#df734d"/>
    <circle id="Ellipse_76" data-name="Ellipse 76" cx="44.369" cy="44.369" r="44.369" transform="translate(325.839 3859)" fill="#001635"/>
    <circle id="Ellipse_77" data-name="Ellipse 77" cx="7.699" cy="7.699" r="7.699" transform="translate(353.745 3981.274)" fill="#001635"/>
    <path id="Path_63" data-name="Path 63" d="M69.69,118.822a13.572,13.572,0,0,1,17.118-8.734" transform="translate(303.348 3916.071)" fill="none" stroke="#000" stroke-linecap="round" stroke-miterlimit="10" stroke-width="4"/>
    <circle id="Ellipse_78" data-name="Ellipse 78" cx="7.699" cy="7.699" r="7.699" transform="translate(382.822 3970.044)" fill="#001635"/>
    <circle id="Ellipse_79" data-name="Ellipse 79" cx="22.915" cy="22.915" r="22.915" transform="translate(319.799 3899.611)" fill="#001635"/>
    <rect id="Rectangle_113" data-name="Rectangle 113" width="12.796" height="30.416" rx="2.9" transform="translate(459.233 4228.043) rotate(-173.54)" fill="#df734d"/>
    <rect id="Rectangle_114" data-name="Rectangle 114" width="34.54" height="141.811" rx="11.35" transform="translate(288.147 4120.58) rotate(-16.98)" fill="#eebe08"/>
    <rect id="Rectangle_115" data-name="Rectangle 115" width="35.727" height="146.725" rx="11.35" transform="translate(321.729 4251.415) rotate(-85.73)" fill="#eebe08"/>
    <rect id="Rectangle_116" data-name="Rectangle 116" width="17.163" height="58.931" rx="3.88" transform="matrix(-0.764, -0.645, 0.645, -0.764, 453.533, 4255.312)" fill="#e6a07e"/>
    <rect id="Rectangle_117" data-name="Rectangle 117" width="35.27" height="55.507" rx="7.98" transform="matrix(-0.764, -0.645, 0.645, -0.764, 469.395, 4250.554)" fill="#e6a07e"/>
    <ellipse id="Ellipse_80" data-name="Ellipse 80" cx="114" cy="108" rx="114" ry="108" transform="translate(430 3865.986)" fill="#fff"/>
    <ellipse id="Ellipse_81" data-name="Ellipse 81" cx="123" cy="116.5" rx="123" ry="116.5" transform="translate(768 3959.986)" fill="#fff"/>
    <g id="Layer_2" data-name="Layer 2" transform="translate(793.991 4027.056)">
      <g id="Layer_1" data-name="Layer 1" transform="translate(8.009 -6.011)">
        <path id="Path_51" data-name="Path 51" d="M95.295,56.028a40.67,40.67,0,0,0-2.558-3.858A47.251,47.251,0,0,0,81.37,58.881a33.3,33.3,0,0,1,2.656,3.847,34.529,34.529,0,0,1,3.5,8.11A34.648,34.648,0,0,1,99,63.789,47.961,47.961,0,0,0,95.295,56.028Z" transform="translate(7.558 4.864)" fill="#1a76b8"/>
        <path id="Path_52" data-name="Path 52" d="M91.527,122.691a47.516,47.516,0,0,1-5.334,3.683,45.153,45.153,0,0,1-6.044,3.017,47.775,47.775,0,0,1-48.169-81.44l-14.843-25L12.864,37.906A6.554,6.554,0,0,1,.262,34.3L8.743,4.745a.448.448,0,0,1,0-.077,4.558,4.558,0,0,1,.273-.732V3.827a1.651,1.651,0,0,1,.12-.24.907.907,0,0,1,.077-.142A5.552,5.552,0,0,1,9.6,2.8V2.723l.24-.219.1-.12a4.929,4.929,0,0,1,.514-.557H10.5l.208-.186.12-.087a3.585,3.585,0,0,1,.612-.459l.109-.087a.141.141,0,0,0,.109-.066l.131-.077.12-.077c.208-.12.426-.208.634-.306H12.7l.262-.087h.087a6.951,6.951,0,0,1,.721-.273h.153L14.208,0H14.3a5.935,5.935,0,0,1,.754,0H15.6a6.208,6.208,0,0,1,.8.153h0l30.047,6.7a6.558,6.558,0,0,1,1.913,12.023,6.481,6.481,0,0,1-4.776.765l-15.16-3.377L43.249,41.251A47.863,47.863,0,0,1,100.3,57.023a47.251,47.251,0,0,0-11.367,6.711,34.659,34.659,0,1,0-15.073,54.049,35.349,35.349,0,0,0,5.629-2.7,34.253,34.253,0,0,0,5.837-4.372,34.736,34.736,0,0,0,9.761-34.976,34.648,34.648,0,0,1,11.477-7.094,47.9,47.9,0,0,1-15.04,54.049Z" transform="translate(-0.009 0.011)" fill="#1a76b8"/>
        <path id="Path_53" data-name="Path 53" d="M143.4,24.195l-10.045-1.814,1.9-10.6a6.558,6.558,0,1,0-12.908-2.306l-1.9,10.613L110.4,18.216a6.558,6.558,0,1,0-2.317,12.909l10.045,1.8-3.607,20.046a47.753,47.753,0,0,0-46.682,64.4,35.347,35.347,0,0,0,5.629-2.7A34.254,34.254,0,0,0,79.3,110.3a34.779,34.779,0,1,1,6.2,12.023,47.516,47.516,0,0,1-5.334,3.683,45.152,45.152,0,0,1-6.044,3.017,47.764,47.764,0,1,0,53.317-73.647l3.6-20.046,10.045,1.8a6.558,6.558,0,1,0,2.317-12.9Z" transform="translate(6.02 0.377)" fill="#dc1c4b"/>
      </g>
    </g>
    <g id="Group_40" data-name="Group 40" transform="translate(-22 2480.986)">
      <rect id="Rectangle_119" data-name="Rectangle 119" width="16" height="121" transform="translate(603.123 1444.063) rotate(45)" fill="#dc1c4b"/>
      <rect id="Rectangle_120" data-name="Rectangle 120" width="16" height="121" transform="translate(614.437 1529.623) rotate(135)" fill="#dc1c4b"/>
    </g>
    <text id="FREE" transform="translate(895 4007)" fill="#000a2b" stroke="#000a2b" stroke-width="2" font-size="35" font-family="GeosansLight" letter-spacing="0.094em"><tspan x="-37.538" y="0">FREE</tspan></text>
  </g>
</svg>
