<svg xmlns="http://www.w3.org/2000/svg" width="560.889" height="275.758" viewBox="0 0 560.889 275.758">
  <g id="Group_58" data-name="Group 58" transform="translate(-346.403 -3123.117)">
    <rect id="Rectangle_96" data-name="Rectangle 96" width="19.109" height="45.438" rx="9.554" transform="translate(566.236 3283.21) rotate(-126.53)" fill="#df734d"/>
    <g id="Layer_2" data-name="Layer 2" transform="translate(510.34 3162.245)">
      <g id="Layer_1" data-name="Layer 1" transform="translate(0 0)">
        <g id="Group_37" data-name="Group 37">
          <path id="Path_49" data-name="Path 49" d="M153.608,134.358l-79.62-83.95-6.876,6.535L15.716,2.78,4.31,13.645,55.646,67.767,48.49,74.583l79.62,83.93a12.989,12.989,0,0,0,18.342.5l6.655-6.334a12.989,12.989,0,0,0,.5-18.321Z" transform="translate(4.345 2.798)" fill="#cfe3ed"/>
          <rect id="Rectangle_103" data-name="Rectangle 103" width="9.602" height="57.57" rx="1.77" transform="translate(83.167 42.753) rotate(46.52)" fill="#7b8f9d"/>
          <path id="Path_50" data-name="Path 50" d="M27.47,1.266h0a4.009,4.009,0,0,0-5.693-.16L1.271,20.549a4.009,4.009,0,0,0-.16,5.713h0a4.009,4.009,0,0,0,5.713.16l8.018-7.577L27.37,6.958a4.009,4.009,0,0,0,.1-5.693Z" transform="translate(0.008 0.003)" fill="#7b8f9d"/>
          <rect id="Rectangle_104" data-name="Rectangle 104" width="89.202" height="2.486" transform="translate(154.656 158.139) rotate(46.52)" fill="#7b8f9d"/>
        </g>
      </g>
    </g>
    <rect id="Rectangle_148" data-name="Rectangle 148" width="52.705" height="216.394" rx="26.353" transform="translate(565.264 3276.359) rotate(114.37)" fill="#5297c9"/>
    <rect id="Rectangle_97" data-name="Rectangle 97" width="25.633" height="88.044" rx="12.816" transform="translate(530.602 3304.712) rotate(-92.82)" fill="#e6a07e"/>
    <rect id="Rectangle_98" data-name="Rectangle 98" width="52.705" height="82.936" rx="26.353" transform="translate(552.335 3317.885) rotate(-92.669)" fill="#e6a07e"/>
    <rect id="Rectangle_150" data-name="Rectangle 150" width="52.705" height="216.394" rx="26.353" transform="matrix(0.813, -0.583, 0.583, 0.813, 738.392, 3222.991)" fill="#ffcb05"/>
    <rect id="Rectangle_151" data-name="Rectangle 151" width="25.356" height="113.124" rx="12.678" transform="translate(752.516 3124.002) rotate(-2)" fill="#e6a07e"/>
    <rect id="Rectangle_152" data-name="Rectangle 152" width="27.217" height="49.226" rx="13.609" transform="translate(745.543 3169.378) rotate(-2)" fill="#df734d"/>
  </g>
</svg>
