<svg xmlns="http://www.w3.org/2000/svg" width="473.769" height="1019.508" viewBox="0 0 473.769 1019.508">
  <g id="Group_28" data-name="Group 28" transform="translate(-376 -722.492)">
    <g id="Layer_2" data-name="Layer 2" transform="translate(718.799 895.625)">
      <g id="Layer_1" data-name="Layer 1" transform="translate(0 0)">
        <ellipse id="Ellipse_22" data-name="Ellipse 22" cx="52.296" cy="52.296" rx="52.296" ry="52.296" transform="translate(15.209 13.108)" fill="#602d82"/>
        <rect id="Rectangle_37" data-name="Rectangle 37" width="3.011" height="15.038" transform="translate(66.119 3.177) rotate(16.48)" fill="#602d82"/>
        <ellipse id="Ellipse_23" data-name="Ellipse 23" cx="2.263" cy="7.519" rx="2.263" ry="7.519" transform="translate(59.165 4.34) rotate(-73.52)" fill="#602d82"/>
        <rect id="Rectangle_38" data-name="Rectangle 38" width="3.011" height="15.038" transform="translate(64.241 112.61) rotate(-12.61)" fill="#602d82"/>
        <ellipse id="Ellipse_24" data-name="Ellipse 24" cx="7.519" cy="2.263" rx="7.519" ry="2.263" transform="translate(60.681 125.655) rotate(-12.61)" fill="#602d82"/>
        <rect id="Rectangle_39" data-name="Rectangle 39" width="3.011" height="15.038" transform="translate(3.328 64.259) rotate(-72.13)" fill="#602d82"/>
        <ellipse id="Ellipse_25" data-name="Ellipse 25" cx="7.519" cy="2.263" rx="7.519" ry="2.263" transform="translate(0 69.848) rotate(-72.13)" fill="#602d82"/>
        <rect id="Rectangle_40" data-name="Rectangle 40" width="3.011" height="15.038" transform="translate(113.345 65.671) rotate(-112.12)" fill="#602d82"/>
        <ellipse id="Ellipse_26" data-name="Ellipse 26" cx="2.263" cy="7.519" rx="2.263" ry="7.519" transform="translate(121.115 53.095) rotate(-22.12)" fill="#602d82"/>
        <rect id="Rectangle_41" data-name="Rectangle 41" width="3.011" height="15.038" transform="translate(21.207 20.911) rotate(-45)" fill="#602d82"/>
        <ellipse id="Ellipse_27" data-name="Ellipse 27" cx="7.519" cy="2.263" rx="7.519" ry="2.263" transform="translate(15.712 24.37) rotate(-45)" fill="#602d82"/>
        <rect id="Rectangle_42" data-name="Rectangle 42" width="3.011" height="15.038" transform="translate(102.734 100.576) rotate(-45)" fill="#602d82"/>
        <ellipse id="Ellipse_28" data-name="Ellipse 28" cx="7.519" cy="2.263" rx="7.519" ry="2.263" transform="translate(106.727 113.512) rotate(-45)" fill="#602d82"/>
        <rect id="Rectangle_43" data-name="Rectangle 43" width="3.011" height="15.038" transform="translate(102.573 31.55) rotate(-135)" fill="#602d82"/>
        <ellipse id="Ellipse_29" data-name="Ellipse 29" cx="2.263" cy="7.519" rx="2.263" ry="7.519" transform="translate(104.842 16.93) rotate(-45)" fill="#602d82"/>
        <rect id="Rectangle_44" data-name="Rectangle 44" width="3.011" height="15.038" transform="translate(19.165 111.217) rotate(-135)" fill="#602d82"/>
        <ellipse id="Ellipse_30" data-name="Ellipse 30" cx="2.263" cy="7.519" rx="2.263" ry="7.519" transform="translate(11.983 106.07) rotate(-45)" fill="#602d82"/>
        <rect id="Rectangle_45" data-name="Rectangle 45" width="2.787" height="13.953" transform="matrix(0.696, -0.718, 0.718, 0.696, 41.806, 11.097)" fill="#602d82"/>
        <ellipse id="Ellipse_31" data-name="Ellipse 31" cx="6.976" cy="2.095" rx="6.976" ry="2.095" transform="matrix(0.696, -0.718, 0.718, 0.696, 36.771, 14.404)" fill="#602d82"/>
        <rect id="Rectangle_46" data-name="Rectangle 46" width="2.787" height="13.953" transform="translate(83.684 105.927) rotate(-22.5)" fill="#602d82"/>
        <ellipse id="Ellipse_32" data-name="Ellipse 32" cx="6.976" cy="2.095" rx="6.976" ry="2.095" transform="translate(82.519 118.442) rotate(-22.5)" fill="#602d82"/>
        <rect id="Rectangle_47" data-name="Rectangle 47" width="2.787" height="13.953" transform="translate(13.039 87.351) rotate(-112.5)" fill="#602d82"/>
        <ellipse id="Ellipse_33" data-name="Ellipse 33" cx="2.095" cy="6.976" rx="2.095" ry="6.976" transform="translate(8.723 80.377) rotate(-22.5)" fill="#602d82"/>
        <rect id="Rectangle_48" data-name="Rectangle 48" width="2.787" height="13.953" transform="translate(105.925 47.307) rotate(-112.5)" fill="#602d82"/>
        <ellipse id="Ellipse_34" data-name="Ellipse 34" cx="2.095" cy="6.976" rx="2.095" ry="6.976" transform="translate(113.085 35.6) rotate(-22.5)" fill="#602d82"/>
        <rect id="Rectangle_49" data-name="Rectangle 49" width="2.774" height="13.889" transform="translate(13.866 43.82) rotate(-67.557)" fill="#602d82"/>
        <ellipse id="Ellipse_35" data-name="Ellipse 35" cx="6.976" cy="2.095" rx="6.976" ry="2.095" transform="translate(10.579 48.743) rotate(-67.5)" fill="#602d82"/>
        <rect id="Rectangle_50" data-name="Rectangle 50" width="2.787" height="13.953" transform="translate(108.819 82.009) rotate(-67.5)" fill="#602d82"/>
        <ellipse id="Ellipse_36" data-name="Ellipse 36" cx="6.976" cy="2.095" rx="6.976" ry="2.095" transform="translate(116.834 91.68) rotate(-67.5)" fill="#602d82"/>
        <rect id="Rectangle_51" data-name="Rectangle 51" width="2.787" height="13.953" transform="translate(83.886 25.934) rotate(-157.5)" fill="#602d82"/>
        <ellipse id="Ellipse_37" data-name="Ellipse 37" cx="2.095" cy="6.976" rx="2.095" ry="6.976" transform="translate(80.653 12.575) rotate(-67.5)" fill="#602d82"/>
        <rect id="Rectangle_52" data-name="Rectangle 52" width="2.787" height="13.953" transform="translate(45.721 118.812) rotate(-157.5)" fill="#602d82"/>
        <ellipse id="Ellipse_38" data-name="Ellipse 38" cx="2.095" cy="6.976" rx="2.095" ry="6.976" transform="translate(37.733 116.944) rotate(-67.5)" fill="#602d82"/>
      </g>
    </g>
    <g id="Layer_2-2" data-name="Layer 2" transform="translate(376.702 1026.17)">
      <g id="Layer_1-2" data-name="Layer 1" transform="translate(-0.702 -0.678)">
        <circle id="Ellipse_22-2" data-name="Ellipse 22" cx="43.224" cy="43.224" r="43.224" transform="translate(12.571 10.834)" fill="#602d82"/>
        <rect id="Rectangle_37-2" data-name="Rectangle 37" width="2.489" height="12.429" transform="translate(54.649 2.626) rotate(16.48)" fill="#602d82"/>
        <ellipse id="Ellipse_23-2" data-name="Ellipse 23" cx="1.871" cy="6.215" rx="1.871" ry="6.215" transform="translate(48.901 3.587) rotate(-73.52)" fill="#602d82"/>
        <rect id="Rectangle_38-2" data-name="Rectangle 38" width="2.489" height="12.429" transform="translate(53.097 93.074) rotate(-12.61)" fill="#602d82"/>
        <ellipse id="Ellipse_24-2" data-name="Ellipse 24" cx="6.215" cy="1.871" rx="6.215" ry="1.871" transform="translate(50.155 103.857) rotate(-12.61)" fill="#602d82"/>
        <rect id="Rectangle_39-2" data-name="Rectangle 39" width="2.489" height="12.429" transform="translate(2.751 53.111) rotate(-72.13)" fill="#602d82"/>
        <ellipse id="Ellipse_25-2" data-name="Ellipse 25" cx="6.215" cy="1.871" rx="6.215" ry="1.871" transform="translate(0 57.731) rotate(-72.13)" fill="#602d82"/>
        <rect id="Rectangle_40-2" data-name="Rectangle 40" width="2.489" height="12.429" transform="translate(93.683 54.279) rotate(-112.12)" fill="#602d82"/>
        <ellipse id="Ellipse_26-2" data-name="Ellipse 26" cx="1.871" cy="6.215" rx="1.871" ry="6.215" transform="translate(100.104 43.884) rotate(-22.12)" fill="#602d82"/>
        <rect id="Rectangle_41-2" data-name="Rectangle 41" width="2.489" height="12.429" transform="translate(17.528 17.283) rotate(-45)" fill="#602d82"/>
        <ellipse id="Ellipse_27-2" data-name="Ellipse 27" cx="6.215" cy="1.871" rx="6.215" ry="1.871" transform="translate(12.986 20.143) rotate(-45)" fill="#602d82"/>
        <rect id="Rectangle_42-2" data-name="Rectangle 42" width="2.489" height="12.429" transform="translate(84.912 83.128) rotate(-45)" fill="#602d82"/>
        <ellipse id="Ellipse_28-2" data-name="Ellipse 28" cx="6.215" cy="1.871" rx="6.215" ry="1.871" transform="translate(88.213 93.82) rotate(-45)" fill="#602d82"/>
        <rect id="Rectangle_43-2" data-name="Rectangle 43" width="2.489" height="12.429" transform="translate(84.779 26.077) rotate(-135)" fill="#602d82"/>
        <ellipse id="Ellipse_29-2" data-name="Ellipse 29" cx="1.871" cy="6.215" rx="1.871" ry="6.215" transform="translate(86.654 13.993) rotate(-45)" fill="#602d82"/>
        <rect id="Rectangle_44-2" data-name="Rectangle 44" width="2.489" height="12.429" transform="translate(15.84 91.924) rotate(-135)" fill="#602d82"/>
        <ellipse id="Ellipse_30-2" data-name="Ellipse 30" cx="1.871" cy="6.215" rx="1.871" ry="6.215" transform="translate(9.904 87.67) rotate(-45)" fill="#602d82"/>
        <rect id="Rectangle_45-2" data-name="Rectangle 45" width="2.303" height="11.532" transform="matrix(0.696, -0.718, 0.718, 0.696, 34.553, 9.172)" fill="#602d82"/>
        <ellipse id="Ellipse_31-2" data-name="Ellipse 31" cx="5.766" cy="1.731" rx="5.766" ry="1.731" transform="matrix(0.696, -0.718, 0.718, 0.696, 30.392, 11.905)" fill="#602d82"/>
        <rect id="Rectangle_46-2" data-name="Rectangle 46" width="2.303" height="11.532" transform="translate(69.167 87.551) rotate(-22.5)" fill="#602d82"/>
        <ellipse id="Ellipse_32-2" data-name="Ellipse 32" cx="5.766" cy="1.731" rx="5.766" ry="1.731" transform="translate(68.204 97.895) rotate(-22.5)" fill="#602d82"/>
        <rect id="Rectangle_47-2" data-name="Rectangle 47" width="2.303" height="11.532" transform="translate(10.777 72.198) rotate(-112.5)" fill="#602d82"/>
        <ellipse id="Ellipse_33-2" data-name="Ellipse 33" cx="1.731" cy="5.766" rx="1.731" ry="5.766" transform="translate(7.21 66.434) rotate(-22.5)" fill="#602d82"/>
        <rect id="Rectangle_48-2" data-name="Rectangle 48" width="2.303" height="11.532" transform="translate(87.549 39.1) rotate(-112.5)" fill="#602d82"/>
        <ellipse id="Ellipse_34-2" data-name="Ellipse 34" cx="1.731" cy="5.766" rx="1.731" ry="5.766" transform="translate(93.468 29.424) rotate(-22.5)" fill="#602d82"/>
        <rect id="Rectangle_49-2" data-name="Rectangle 49" width="2.293" height="11.479" transform="translate(11.46 36.218) rotate(-67.557)" fill="#602d82"/>
        <ellipse id="Ellipse_35-2" data-name="Ellipse 35" cx="5.766" cy="1.731" rx="5.766" ry="1.731" transform="translate(8.744 40.288) rotate(-67.5)" fill="#602d82"/>
        <rect id="Rectangle_50-2" data-name="Rectangle 50" width="2.303" height="11.532" transform="translate(89.941 67.782) rotate(-67.5)" fill="#602d82"/>
        <ellipse id="Ellipse_36-2" data-name="Ellipse 36" cx="5.766" cy="1.731" rx="5.766" ry="1.731" transform="translate(96.566 75.776) rotate(-67.5)" fill="#602d82"/>
        <rect id="Rectangle_51-2" data-name="Rectangle 51" width="2.303" height="11.532" transform="translate(69.334 21.435) rotate(-157.5)" fill="#602d82"/>
        <ellipse id="Ellipse_37-2" data-name="Ellipse 37" cx="1.731" cy="5.766" rx="1.731" ry="5.766" transform="translate(66.661 10.394) rotate(-67.5)" fill="#602d82"/>
        <rect id="Rectangle_52-2" data-name="Rectangle 52" width="2.303" height="11.532" transform="translate(37.789 98.201) rotate(-157.5)" fill="#602d82"/>
        <ellipse id="Ellipse_38-2" data-name="Ellipse 38" cx="1.731" cy="5.766" rx="1.731" ry="5.766" transform="translate(31.187 96.657) rotate(-67.5)" fill="#602d82"/>
      </g>
    </g>
    <g id="Layer_2-3" data-name="Layer 2" transform="translate(502 722.492)">
      <g id="Layer_1-3" data-name="Layer 1" transform="translate(0 0)">
        <ellipse id="Ellipse_22-3" data-name="Ellipse 22" cx="38.033" cy="38.033" rx="38.033" ry="38.033" transform="translate(11.061 9.533)" fill="#602d82"/>
        <rect id="Rectangle_37-3" data-name="Rectangle 37" width="2.19" height="10.937" transform="translate(48.086 2.31) rotate(16.48)" fill="#602d82"/>
        <ellipse id="Ellipse_23-3" data-name="Ellipse 23" cx="1.646" cy="5.468" rx="1.646" ry="5.468" transform="translate(43.029 3.157) rotate(-73.52)" fill="#602d82"/>
        <rect id="Rectangle_38-3" data-name="Rectangle 38" width="2.19" height="10.937" transform="translate(46.721 81.898) rotate(-12.61)" fill="#602d82"/>
        <ellipse id="Ellipse_24-3" data-name="Ellipse 24" cx="5.468" cy="1.646" rx="5.468" ry="1.646" transform="translate(44.132 91.385) rotate(-12.61)" fill="#602d82"/>
        <rect id="Rectangle_39-3" data-name="Rectangle 39" width="2.19" height="10.937" transform="translate(2.421 46.734) rotate(-72.13)" fill="#602d82"/>
        <ellipse id="Ellipse_25-3" data-name="Ellipse 25" cx="5.468" cy="1.646" rx="5.468" ry="1.646" transform="translate(0 50.799) rotate(-72.13)" fill="#602d82"/>
        <rect id="Rectangle_40-3" data-name="Rectangle 40" width="2.19" height="10.937" transform="translate(82.433 47.761) rotate(-112.12)" fill="#602d82"/>
        <ellipse id="Ellipse_26-3" data-name="Ellipse 26" cx="1.646" cy="5.468" rx="1.646" ry="5.468" transform="translate(88.083 38.614) rotate(-22.12)" fill="#602d82"/>
        <rect id="Rectangle_41-3" data-name="Rectangle 41" width="2.19" height="10.937" transform="translate(15.423 15.208) rotate(-45)" fill="#602d82"/>
        <ellipse id="Ellipse_27-3" data-name="Ellipse 27" cx="5.468" cy="1.646" rx="5.468" ry="1.646" transform="translate(11.427 17.724) rotate(-45)" fill="#602d82"/>
        <rect id="Rectangle_42-3" data-name="Rectangle 42" width="2.19" height="10.937" transform="translate(74.716 73.146) rotate(-45)" fill="#602d82"/>
        <ellipse id="Ellipse_28-3" data-name="Ellipse 28" cx="5.468" cy="1.646" rx="5.468" ry="1.646" transform="translate(77.62 82.554) rotate(-45)" fill="#602d82"/>
        <rect id="Rectangle_43-3" data-name="Rectangle 43" width="2.19" height="10.937" transform="translate(74.598 22.946) rotate(-135)" fill="#602d82"/>
        <ellipse id="Ellipse_29-3" data-name="Ellipse 29" cx="1.646" cy="5.468" rx="1.646" ry="5.468" transform="translate(76.249 12.313) rotate(-45)" fill="#602d82"/>
        <rect id="Rectangle_44-3" data-name="Rectangle 44" width="2.19" height="10.937" transform="translate(13.938 80.885) rotate(-135)" fill="#602d82"/>
        <ellipse id="Ellipse_30-3" data-name="Ellipse 30" cx="1.646" cy="5.468" rx="1.646" ry="5.468" transform="translate(8.715 77.142) rotate(-45)" fill="#602d82"/>
        <rect id="Rectangle_45-3" data-name="Rectangle 45" width="2.027" height="10.148" transform="matrix(0.696, -0.718, 0.718, 0.696, 30.404, 8.07)" fill="#602d82"/>
        <ellipse id="Ellipse_31-3" data-name="Ellipse 31" cx="5.074" cy="1.524" rx="5.074" ry="1.524" transform="matrix(0.696, -0.718, 0.718, 0.696, 26.742, 10.476)" fill="#602d82"/>
        <rect id="Rectangle_46-3" data-name="Rectangle 46" width="2.027" height="10.148" transform="translate(60.861 77.038) rotate(-22.5)" fill="#602d82"/>
        <ellipse id="Ellipse_32-3" data-name="Ellipse 32" cx="5.074" cy="1.524" rx="5.074" ry="1.524" transform="translate(60.014 86.14) rotate(-22.5)" fill="#602d82"/>
        <rect id="Rectangle_47-3" data-name="Rectangle 47" width="2.027" height="10.148" transform="translate(9.483 63.528) rotate(-112.5)" fill="#602d82"/>
        <ellipse id="Ellipse_33-3" data-name="Ellipse 33" cx="1.524" cy="5.074" rx="1.524" ry="5.074" transform="translate(6.344 58.456) rotate(-22.5)" fill="#602d82"/>
        <rect id="Rectangle_48-3" data-name="Rectangle 48" width="2.027" height="10.148" transform="translate(77.036 34.405) rotate(-112.5)" fill="#602d82"/>
        <ellipse id="Ellipse_34-3" data-name="Ellipse 34" cx="1.524" cy="5.074" rx="1.524" ry="5.074" transform="translate(82.244 25.891) rotate(-22.5)" fill="#602d82"/>
        <rect id="Rectangle_49-3" data-name="Rectangle 49" width="2.017" height="10.101" transform="translate(10.084 31.869) rotate(-67.557)" fill="#602d82"/>
        <ellipse id="Ellipse_35-3" data-name="Ellipse 35" cx="5.074" cy="1.524" rx="5.074" ry="1.524" transform="translate(7.694 35.45) rotate(-67.5)" fill="#602d82"/>
        <rect id="Rectangle_50-3" data-name="Rectangle 50" width="2.027" height="10.148" transform="translate(79.141 59.643) rotate(-67.5)" fill="#602d82"/>
        <ellipse id="Ellipse_36-3" data-name="Ellipse 36" cx="5.074" cy="1.524" rx="5.074" ry="1.524" transform="translate(84.97 66.676) rotate(-67.5)" fill="#602d82"/>
        <rect id="Rectangle_51-3" data-name="Rectangle 51" width="2.027" height="10.148" transform="translate(61.008 18.861) rotate(-157.5)" fill="#602d82"/>
        <ellipse id="Ellipse_37-3" data-name="Ellipse 37" cx="1.524" cy="5.074" rx="1.524" ry="5.074" transform="translate(58.656 9.146) rotate(-67.5)" fill="#602d82"/>
        <rect id="Rectangle_52-3" data-name="Rectangle 52" width="2.027" height="10.148" transform="translate(33.251 86.409) rotate(-157.5)" fill="#602d82"/>
        <ellipse id="Ellipse_38-3" data-name="Ellipse 38" cx="1.524" cy="5.074" rx="1.524" ry="5.074" transform="translate(27.442 85.05) rotate(-67.5)" fill="#602d82"/>
      </g>
    </g>
    <g id="Layer_2-4" data-name="Layer 2" transform="translate(700.799 1605.625)">
      <g id="Layer_1-4" data-name="Layer 1" transform="translate(0 0)">
        <ellipse id="Ellipse_22-4" data-name="Ellipse 22" cx="52.296" cy="52.296" rx="52.296" ry="52.296" transform="translate(15.209 13.108)" fill="#602d82"/>
        <rect id="Rectangle_37-4" data-name="Rectangle 37" width="3.011" height="15.038" transform="translate(66.119 3.177) rotate(16.48)" fill="#602d82"/>
        <ellipse id="Ellipse_23-4" data-name="Ellipse 23" cx="2.263" cy="7.519" rx="2.263" ry="7.519" transform="translate(59.165 4.34) rotate(-73.52)" fill="#602d82"/>
        <rect id="Rectangle_38-4" data-name="Rectangle 38" width="3.011" height="15.038" transform="translate(64.241 112.61) rotate(-12.61)" fill="#602d82"/>
        <ellipse id="Ellipse_24-4" data-name="Ellipse 24" cx="7.519" cy="2.263" rx="7.519" ry="2.263" transform="translate(60.681 125.655) rotate(-12.61)" fill="#602d82"/>
        <rect id="Rectangle_39-4" data-name="Rectangle 39" width="3.011" height="15.038" transform="translate(3.328 64.259) rotate(-72.13)" fill="#602d82"/>
        <ellipse id="Ellipse_25-4" data-name="Ellipse 25" cx="7.519" cy="2.263" rx="7.519" ry="2.263" transform="translate(0 69.848) rotate(-72.13)" fill="#602d82"/>
        <rect id="Rectangle_40-4" data-name="Rectangle 40" width="3.011" height="15.038" transform="translate(113.345 65.671) rotate(-112.12)" fill="#602d82"/>
        <ellipse id="Ellipse_26-4" data-name="Ellipse 26" cx="2.263" cy="7.519" rx="2.263" ry="7.519" transform="translate(121.115 53.095) rotate(-22.12)" fill="#602d82"/>
        <rect id="Rectangle_41-4" data-name="Rectangle 41" width="3.011" height="15.038" transform="translate(21.207 20.911) rotate(-45)" fill="#602d82"/>
        <ellipse id="Ellipse_27-4" data-name="Ellipse 27" cx="7.519" cy="2.263" rx="7.519" ry="2.263" transform="translate(15.712 24.37) rotate(-45)" fill="#602d82"/>
        <rect id="Rectangle_42-4" data-name="Rectangle 42" width="3.011" height="15.038" transform="translate(102.734 100.576) rotate(-45)" fill="#602d82"/>
        <ellipse id="Ellipse_28-4" data-name="Ellipse 28" cx="7.519" cy="2.263" rx="7.519" ry="2.263" transform="translate(106.727 113.512) rotate(-45)" fill="#602d82"/>
        <rect id="Rectangle_43-4" data-name="Rectangle 43" width="3.011" height="15.038" transform="translate(102.573 31.55) rotate(-135)" fill="#602d82"/>
        <ellipse id="Ellipse_29-4" data-name="Ellipse 29" cx="2.263" cy="7.519" rx="2.263" ry="7.519" transform="translate(104.842 16.93) rotate(-45)" fill="#602d82"/>
        <rect id="Rectangle_44-4" data-name="Rectangle 44" width="3.011" height="15.038" transform="translate(19.165 111.217) rotate(-135)" fill="#602d82"/>
        <ellipse id="Ellipse_30-4" data-name="Ellipse 30" cx="2.263" cy="7.519" rx="2.263" ry="7.519" transform="translate(11.983 106.07) rotate(-45)" fill="#602d82"/>
        <rect id="Rectangle_45-4" data-name="Rectangle 45" width="2.787" height="13.953" transform="matrix(0.696, -0.718, 0.718, 0.696, 41.806, 11.097)" fill="#602d82"/>
        <ellipse id="Ellipse_31-4" data-name="Ellipse 31" cx="6.976" cy="2.095" rx="6.976" ry="2.095" transform="matrix(0.696, -0.718, 0.718, 0.696, 36.771, 14.404)" fill="#602d82"/>
        <rect id="Rectangle_46-4" data-name="Rectangle 46" width="2.787" height="13.953" transform="translate(83.684 105.927) rotate(-22.5)" fill="#602d82"/>
        <ellipse id="Ellipse_32-4" data-name="Ellipse 32" cx="6.976" cy="2.095" rx="6.976" ry="2.095" transform="translate(82.519 118.442) rotate(-22.5)" fill="#602d82"/>
        <rect id="Rectangle_47-4" data-name="Rectangle 47" width="2.787" height="13.953" transform="translate(13.039 87.351) rotate(-112.5)" fill="#602d82"/>
        <ellipse id="Ellipse_33-4" data-name="Ellipse 33" cx="2.095" cy="6.976" rx="2.095" ry="6.976" transform="translate(8.723 80.377) rotate(-22.5)" fill="#602d82"/>
        <rect id="Rectangle_48-4" data-name="Rectangle 48" width="2.787" height="13.953" transform="translate(105.925 47.307) rotate(-112.5)" fill="#602d82"/>
        <ellipse id="Ellipse_34-4" data-name="Ellipse 34" cx="2.095" cy="6.976" rx="2.095" ry="6.976" transform="translate(113.085 35.6) rotate(-22.5)" fill="#602d82"/>
        <rect id="Rectangle_49-4" data-name="Rectangle 49" width="2.774" height="13.889" transform="translate(13.866 43.82) rotate(-67.557)" fill="#602d82"/>
        <ellipse id="Ellipse_35-4" data-name="Ellipse 35" cx="6.976" cy="2.095" rx="6.976" ry="2.095" transform="translate(10.579 48.743) rotate(-67.5)" fill="#602d82"/>
        <rect id="Rectangle_50-4" data-name="Rectangle 50" width="2.787" height="13.953" transform="translate(108.819 82.009) rotate(-67.5)" fill="#602d82"/>
        <ellipse id="Ellipse_36-4" data-name="Ellipse 36" cx="6.976" cy="2.095" rx="6.976" ry="2.095" transform="translate(116.834 91.68) rotate(-67.5)" fill="#602d82"/>
        <rect id="Rectangle_51-4" data-name="Rectangle 51" width="2.787" height="13.953" transform="translate(83.886 25.934) rotate(-157.5)" fill="#602d82"/>
        <ellipse id="Ellipse_37-4" data-name="Ellipse 37" cx="2.095" cy="6.976" rx="2.095" ry="6.976" transform="translate(80.653 12.575) rotate(-67.5)" fill="#602d82"/>
        <rect id="Rectangle_52-4" data-name="Rectangle 52" width="2.787" height="13.953" transform="translate(45.721 118.812) rotate(-157.5)" fill="#602d82"/>
        <ellipse id="Ellipse_38-4" data-name="Ellipse 38" cx="2.095" cy="6.976" rx="2.095" ry="6.976" transform="translate(37.733 116.944) rotate(-67.5)" fill="#602d82"/>
      </g>
    </g>
    <g id="Layer_2-5" data-name="Layer 2" transform="translate(475 1554.578)">
      <g id="Layer_1-5" data-name="Layer 1" transform="translate(0 0)">
        <ellipse id="Ellipse_22-5" data-name="Ellipse 22" cx="37.841" cy="37.841" rx="37.841" ry="37.841" transform="translate(11.005 9.485)" fill="#602d82"/>
        <rect id="Rectangle_37-5" data-name="Rectangle 37" width="2.179" height="10.881" transform="translate(47.843 2.299) rotate(16.48)" fill="#602d82"/>
        <ellipse id="Ellipse_23-5" data-name="Ellipse 23" cx="1.638" cy="5.441" rx="1.638" ry="5.441" transform="translate(42.811 3.141) rotate(-73.52)" fill="#602d82"/>
        <rect id="Rectangle_38-5" data-name="Rectangle 38" width="2.179" height="10.881" transform="translate(46.484 81.483) rotate(-12.61)" fill="#602d82"/>
        <ellipse id="Ellipse_24-5" data-name="Ellipse 24" cx="5.441" cy="1.638" rx="5.441" ry="1.638" transform="translate(43.908 90.923) rotate(-12.61)" fill="#602d82"/>
        <rect id="Rectangle_39-5" data-name="Rectangle 39" width="2.179" height="10.881" transform="translate(2.408 46.497) rotate(-72.13)" fill="#602d82"/>
        <ellipse id="Ellipse_25-5" data-name="Ellipse 25" cx="5.441" cy="1.638" rx="5.441" ry="1.638" transform="translate(0 50.542) rotate(-72.13)" fill="#602d82"/>
        <rect id="Rectangle_40-5" data-name="Rectangle 40" width="2.179" height="10.881" transform="translate(82.016 47.519) rotate(-112.12)" fill="#602d82"/>
        <ellipse id="Ellipse_26-5" data-name="Ellipse 26" cx="1.638" cy="5.441" rx="1.638" ry="5.441" transform="translate(87.637 38.419) rotate(-22.12)" fill="#602d82"/>
        <rect id="Rectangle_41-5" data-name="Rectangle 41" width="2.179" height="10.881" transform="translate(15.345 15.131) rotate(-45)" fill="#602d82"/>
        <ellipse id="Ellipse_27-5" data-name="Ellipse 27" cx="5.441" cy="1.638" rx="5.441" ry="1.638" transform="translate(11.369 17.634) rotate(-45)" fill="#602d82"/>
        <rect id="Rectangle_42-5" data-name="Rectangle 42" width="2.179" height="10.881" transform="translate(74.337 72.776) rotate(-45)" fill="#602d82"/>
        <ellipse id="Ellipse_28-5" data-name="Ellipse 28" cx="5.441" cy="1.638" rx="5.441" ry="1.638" transform="translate(77.227 82.136) rotate(-45)" fill="#602d82"/>
        <rect id="Rectangle_43-5" data-name="Rectangle 43" width="2.179" height="10.881" transform="translate(74.221 22.829) rotate(-135)" fill="#602d82"/>
        <ellipse id="Ellipse_29-5" data-name="Ellipse 29" cx="1.638" cy="5.441" rx="1.638" ry="5.441" transform="translate(75.863 12.251) rotate(-45)" fill="#602d82"/>
        <rect id="Rectangle_44-5" data-name="Rectangle 44" width="2.179" height="10.881" transform="translate(13.868 80.476) rotate(-135)" fill="#602d82"/>
        <ellipse id="Ellipse_30-5" data-name="Ellipse 30" cx="1.638" cy="5.441" rx="1.638" ry="5.441" transform="translate(8.671 76.751) rotate(-45)" fill="#602d82"/>
        <rect id="Rectangle_45-5" data-name="Rectangle 45" width="2.017" height="10.096" transform="matrix(0.696, -0.718, 0.718, 0.696, 30.25, 8.03)" fill="#602d82"/>
        <ellipse id="Ellipse_31-5" data-name="Ellipse 31" cx="5.048" cy="1.516" rx="5.048" ry="1.516" transform="matrix(0.696, -0.718, 0.718, 0.696, 26.607, 10.423)" fill="#602d82"/>
        <rect id="Rectangle_46-5" data-name="Rectangle 46" width="2.017" height="10.096" transform="translate(60.553 76.648) rotate(-22.5)" fill="#602d82"/>
        <ellipse id="Ellipse_32-5" data-name="Ellipse 32" cx="5.048" cy="1.516" rx="5.048" ry="1.516" transform="translate(59.71 85.703) rotate(-22.5)" fill="#602d82"/>
        <rect id="Rectangle_47-5" data-name="Rectangle 47" width="2.017" height="10.096" transform="translate(9.435 63.207) rotate(-112.5)" fill="#602d82"/>
        <ellipse id="Ellipse_33-5" data-name="Ellipse 33" cx="1.516" cy="5.048" rx="1.516" ry="5.048" transform="translate(6.312 58.16) rotate(-22.5)" fill="#602d82"/>
        <rect id="Rectangle_48-5" data-name="Rectangle 48" width="2.017" height="10.096" transform="translate(76.646 34.231) rotate(-112.5)" fill="#602d82"/>
        <ellipse id="Ellipse_34-5" data-name="Ellipse 34" cx="1.516" cy="5.048" rx="1.516" ry="5.048" transform="translate(81.827 25.76) rotate(-22.5)" fill="#602d82"/>
        <rect id="Rectangle_49-5" data-name="Rectangle 49" width="2.007" height="10.05" transform="translate(10.033 31.708) rotate(-67.557)" fill="#602d82"/>
        <ellipse id="Ellipse_35-5" data-name="Ellipse 35" cx="5.048" cy="1.516" rx="5.048" ry="1.516" transform="translate(7.655 35.27) rotate(-67.5)" fill="#602d82"/>
        <rect id="Rectangle_50-5" data-name="Rectangle 50" width="2.017" height="10.096" transform="translate(78.74 59.341) rotate(-67.5)" fill="#602d82"/>
        <ellipse id="Ellipse_36-5" data-name="Ellipse 36" cx="5.048" cy="1.516" rx="5.048" ry="1.516" transform="translate(84.54 66.339) rotate(-67.5)" fill="#602d82"/>
        <rect id="Rectangle_51-5" data-name="Rectangle 51" width="2.017" height="10.096" transform="translate(60.699 18.766) rotate(-157.5)" fill="#602d82"/>
        <ellipse id="Ellipse_37-5" data-name="Ellipse 37" cx="1.516" cy="5.048" rx="1.516" ry="5.048" transform="translate(58.359 9.099) rotate(-67.5)" fill="#602d82"/>
        <rect id="Rectangle_52-5" data-name="Rectangle 52" width="2.017" height="10.096" transform="translate(33.083 85.971) rotate(-157.5)" fill="#602d82"/>
        <ellipse id="Ellipse_38-5" data-name="Ellipse 38" cx="1.516" cy="5.048" rx="1.516" ry="5.048" transform="translate(27.303 84.62) rotate(-67.5)" fill="#602d82"/>
      </g>
    </g>
    <g id="Layer_2-6" data-name="Layer 2" transform="translate(504.386 1462.384)">
      <g id="Layer_1-6" data-name="Layer 1" transform="translate(-0.386 -0.384)">
        <circle id="Ellipse_39" data-name="Ellipse 39" cx="111.427" cy="111.427" r="111.427" transform="translate(29.195 29.069)" fill="#50b86b"/>
        <rect id="Rectangle_53" data-name="Rectangle 53" width="6.416" height="32.041" transform="matrix(0.993, 0.118, -0.118, 0.993, 153.497, 4.598)" fill="#50b86b"/>
        <ellipse id="Ellipse_40" data-name="Ellipse 40" cx="4.822" cy="16.021" rx="4.822" ry="16.021" transform="matrix(0.118, -0.993, 0.993, 0.118, 139.334, 9.577)" fill="#50b86b"/>
        <rect id="Rectangle_54" data-name="Rectangle 54" width="6.416" height="32.041" transform="matrix(0.993, 0.118, -0.118, 0.993, 125.233, 243.004)" fill="#50b86b"/>
        <ellipse id="Ellipse_41" data-name="Ellipse 41" cx="4.822" cy="16.021" rx="4.822" ry="16.021" transform="matrix(0.118, -0.993, 0.993, 0.118, 107.753, 276.234)" fill="#50b86b"/>
        <rect id="Rectangle_55" data-name="Rectangle 55" width="6.416" height="32.041" transform="matrix(0.118, -0.993, 0.993, 0.118, 4.646, 126.569)" fill="#50b86b"/>
        <ellipse id="Ellipse_42" data-name="Ellipse 42" cx="16.021" cy="4.822" rx="16.021" ry="4.822" transform="matrix(0.118, -0.993, 0.993, 0.118, 0, 139.572)" fill="#50b86b"/>
        <rect id="Rectangle_56" data-name="Rectangle 56" width="6.416" height="32.041" transform="matrix(0.118, -0.993, 0.993, 0.118, 242.968, 154.772)" fill="#50b86b"/>
        <ellipse id="Ellipse_43" data-name="Ellipse 43" cx="16.021" cy="4.822" rx="16.021" ry="4.822" transform="matrix(0.118, -0.993, 0.993, 0.118, 266.696, 171.154)" fill="#50b86b"/>
        <rect id="Rectangle_57" data-name="Rectangle 57" width="6.416" height="32.041" transform="matrix(0.118, -0.993, 0.993, 0.118, 4.646, 126.569)" fill="#50b86b"/>
        <ellipse id="Ellipse_44" data-name="Ellipse 44" cx="16.021" cy="4.822" rx="16.021" ry="4.822" transform="matrix(0.118, -0.993, 0.993, 0.118, 0, 139.572)" fill="#50b86b"/>
        <rect id="Rectangle_58" data-name="Rectangle 58" width="6.416" height="32.041" transform="matrix(0.118, -0.993, 0.993, 0.118, 242.968, 154.772)" fill="#50b86b"/>
        <ellipse id="Ellipse_45" data-name="Ellipse 45" cx="16.021" cy="4.822" rx="16.021" ry="4.822" transform="matrix(0.118, -0.993, 0.993, 0.118, 266.696, 171.154)" fill="#50b86b"/>
        <rect id="Rectangle_59" data-name="Rectangle 59" width="6.416" height="32.041" transform="matrix(0.619, 0.785, -0.785, 0.619, 245.286, 53.786)" fill="#50b86b"/>
        <ellipse id="Ellipse_46" data-name="Ellipse 46" cx="4.822" cy="16.021" rx="4.822" ry="16.021" transform="matrix(0.785, -0.619, 0.619, 0.785, 231.764, 47.305)" fill="#50b86b"/>
        <rect id="Rectangle_60" data-name="Rectangle 60" width="6.416" height="32.041" transform="matrix(0.619, 0.785, -0.785, 0.619, 56.769, 202.366)" fill="#50b86b"/>
        <ellipse id="Ellipse_47" data-name="Ellipse 47" cx="4.822" cy="16.021" rx="4.822" ry="16.021" transform="matrix(0.785, -0.619, 0.619, 0.785, 20.862, 213.552)" fill="#50b86b"/>
        <rect id="Rectangle_61" data-name="Rectangle 61" width="6.416" height="32.041" transform="matrix(0.785, -0.619, 0.619, 0.785, 53.819, 34.764)" fill="#50b86b"/>
        <ellipse id="Ellipse_48" data-name="Ellipse 48" cx="16.021" cy="4.822" rx="16.021" ry="4.822" transform="matrix(0.785, -0.619, 0.619, 0.785, 41.328, 40.705)" fill="#50b86b"/>
        <rect id="Rectangle_62" data-name="Rectangle 62" width="6.416" height="32.041" transform="matrix(0.785, -0.619, 0.619, 0.785, 202.419, 223.265)" fill="#50b86b"/>
        <ellipse id="Ellipse_49" data-name="Ellipse 49" cx="16.021" cy="4.822" rx="16.021" ry="4.822" transform="matrix(0.785, -0.619, 0.619, 0.785, 207.575, 251.567)" fill="#50b86b"/>
        <rect id="Rectangle_63" data-name="Rectangle 63" width="6.416" height="32.041" transform="matrix(0.785, -0.619, 0.619, 0.785, 53.819, 34.764)" fill="#50b86b"/>
        <ellipse id="Ellipse_50" data-name="Ellipse 50" cx="16.021" cy="4.822" rx="16.021" ry="4.822" transform="matrix(0.785, -0.619, 0.619, 0.785, 41.328, 40.705)" fill="#50b86b"/>
        <rect id="Rectangle_64" data-name="Rectangle 64" width="6.416" height="32.041" transform="matrix(0.785, -0.619, 0.619, 0.785, 202.419, 223.265)" fill="#50b86b"/>
        <ellipse id="Ellipse_51" data-name="Ellipse 51" cx="16.021" cy="4.822" rx="16.021" ry="4.822" transform="matrix(0.785, -0.619, 0.619, 0.785, 207.575, 251.567)" fill="#50b86b"/>
      </g>
    </g>
    <g id="Layer_2-7" data-name="Layer 2" transform="translate(701 1200.578)">
      <g id="Layer_1-7" data-name="Layer 1" transform="translate(0 0)">
        <ellipse id="Ellipse_22-6" data-name="Ellipse 22" cx="37.841" cy="37.841" rx="37.841" ry="37.841" transform="translate(11.005 9.485)" fill="#602d82"/>
        <rect id="Rectangle_37-6" data-name="Rectangle 37" width="2.179" height="10.881" transform="translate(47.843 2.299) rotate(16.48)" fill="#602d82"/>
        <ellipse id="Ellipse_23-6" data-name="Ellipse 23" cx="1.638" cy="5.441" rx="1.638" ry="5.441" transform="translate(42.811 3.141) rotate(-73.52)" fill="#602d82"/>
        <rect id="Rectangle_38-6" data-name="Rectangle 38" width="2.179" height="10.881" transform="translate(46.484 81.483) rotate(-12.61)" fill="#602d82"/>
        <ellipse id="Ellipse_24-6" data-name="Ellipse 24" cx="5.441" cy="1.638" rx="5.441" ry="1.638" transform="translate(43.908 90.923) rotate(-12.61)" fill="#602d82"/>
        <rect id="Rectangle_39-6" data-name="Rectangle 39" width="2.179" height="10.881" transform="translate(2.408 46.497) rotate(-72.13)" fill="#602d82"/>
        <ellipse id="Ellipse_25-6" data-name="Ellipse 25" cx="5.441" cy="1.638" rx="5.441" ry="1.638" transform="translate(0 50.542) rotate(-72.13)" fill="#602d82"/>
        <rect id="Rectangle_40-6" data-name="Rectangle 40" width="2.179" height="10.881" transform="translate(82.016 47.519) rotate(-112.12)" fill="#602d82"/>
        <ellipse id="Ellipse_26-6" data-name="Ellipse 26" cx="1.638" cy="5.441" rx="1.638" ry="5.441" transform="translate(87.637 38.419) rotate(-22.12)" fill="#602d82"/>
        <rect id="Rectangle_41-6" data-name="Rectangle 41" width="2.179" height="10.881" transform="translate(15.345 15.131) rotate(-45)" fill="#602d82"/>
        <ellipse id="Ellipse_27-6" data-name="Ellipse 27" cx="5.441" cy="1.638" rx="5.441" ry="1.638" transform="translate(11.369 17.634) rotate(-45)" fill="#602d82"/>
        <rect id="Rectangle_42-6" data-name="Rectangle 42" width="2.179" height="10.881" transform="translate(74.337 72.776) rotate(-45)" fill="#602d82"/>
        <ellipse id="Ellipse_28-6" data-name="Ellipse 28" cx="5.441" cy="1.638" rx="5.441" ry="1.638" transform="translate(77.227 82.136) rotate(-45)" fill="#602d82"/>
        <rect id="Rectangle_43-6" data-name="Rectangle 43" width="2.179" height="10.881" transform="translate(74.221 22.829) rotate(-135)" fill="#602d82"/>
        <ellipse id="Ellipse_29-6" data-name="Ellipse 29" cx="1.638" cy="5.441" rx="1.638" ry="5.441" transform="translate(75.863 12.251) rotate(-45)" fill="#602d82"/>
        <rect id="Rectangle_44-6" data-name="Rectangle 44" width="2.179" height="10.881" transform="translate(13.868 80.476) rotate(-135)" fill="#602d82"/>
        <ellipse id="Ellipse_30-6" data-name="Ellipse 30" cx="1.638" cy="5.441" rx="1.638" ry="5.441" transform="translate(8.671 76.751) rotate(-45)" fill="#602d82"/>
        <rect id="Rectangle_45-6" data-name="Rectangle 45" width="2.017" height="10.096" transform="matrix(0.696, -0.718, 0.718, 0.696, 30.25, 8.03)" fill="#602d82"/>
        <ellipse id="Ellipse_31-6" data-name="Ellipse 31" cx="5.048" cy="1.516" rx="5.048" ry="1.516" transform="matrix(0.696, -0.718, 0.718, 0.696, 26.607, 10.423)" fill="#602d82"/>
        <rect id="Rectangle_46-6" data-name="Rectangle 46" width="2.017" height="10.096" transform="translate(60.553 76.648) rotate(-22.5)" fill="#602d82"/>
        <ellipse id="Ellipse_32-6" data-name="Ellipse 32" cx="5.048" cy="1.516" rx="5.048" ry="1.516" transform="translate(59.71 85.703) rotate(-22.5)" fill="#602d82"/>
        <rect id="Rectangle_47-6" data-name="Rectangle 47" width="2.017" height="10.096" transform="translate(9.435 63.207) rotate(-112.5)" fill="#602d82"/>
        <ellipse id="Ellipse_33-6" data-name="Ellipse 33" cx="1.516" cy="5.048" rx="1.516" ry="5.048" transform="translate(6.312 58.16) rotate(-22.5)" fill="#602d82"/>
        <rect id="Rectangle_48-6" data-name="Rectangle 48" width="2.017" height="10.096" transform="translate(76.646 34.231) rotate(-112.5)" fill="#602d82"/>
        <ellipse id="Ellipse_34-6" data-name="Ellipse 34" cx="1.516" cy="5.048" rx="1.516" ry="5.048" transform="translate(81.827 25.76) rotate(-22.5)" fill="#602d82"/>
        <rect id="Rectangle_49-6" data-name="Rectangle 49" width="2.007" height="10.05" transform="translate(10.033 31.708) rotate(-67.557)" fill="#602d82"/>
        <ellipse id="Ellipse_35-6" data-name="Ellipse 35" cx="5.048" cy="1.516" rx="5.048" ry="1.516" transform="translate(7.655 35.27) rotate(-67.5)" fill="#602d82"/>
        <rect id="Rectangle_50-6" data-name="Rectangle 50" width="2.017" height="10.096" transform="translate(78.74 59.341) rotate(-67.5)" fill="#602d82"/>
        <ellipse id="Ellipse_36-6" data-name="Ellipse 36" cx="5.048" cy="1.516" rx="5.048" ry="1.516" transform="translate(84.54 66.339) rotate(-67.5)" fill="#602d82"/>
        <rect id="Rectangle_51-6" data-name="Rectangle 51" width="2.017" height="10.096" transform="translate(60.699 18.766) rotate(-157.5)" fill="#602d82"/>
        <ellipse id="Ellipse_37-6" data-name="Ellipse 37" cx="1.516" cy="5.048" rx="1.516" ry="5.048" transform="translate(58.359 9.099) rotate(-67.5)" fill="#602d82"/>
        <rect id="Rectangle_52-6" data-name="Rectangle 52" width="2.017" height="10.096" transform="translate(33.083 85.971) rotate(-157.5)" fill="#602d82"/>
        <ellipse id="Ellipse_38-6" data-name="Ellipse 38" cx="1.516" cy="5.048" rx="1.516" ry="5.048" transform="translate(27.303 84.62) rotate(-67.5)" fill="#602d82"/>
      </g>
    </g>
    <text id="CD4" transform="translate(644 1630)" fill="#fff" stroke="#fff" stroke-width="4" font-size="70" font-family="GeosansLight" letter-spacing="0.094em"><tspan x="-74.305" y="0">CD4</tspan></text>
    <g id="Layer_2-8" data-name="Layer 2" transform="translate(483.799 1263.625)">
      <g id="Layer_1-8" data-name="Layer 1" transform="translate(0 0)">
        <ellipse id="Ellipse_22-7" data-name="Ellipse 22" cx="52.296" cy="52.296" rx="52.296" ry="52.296" transform="translate(15.209 13.108)" fill="#602d82"/>
        <rect id="Rectangle_37-7" data-name="Rectangle 37" width="3.011" height="15.038" transform="translate(66.119 3.177) rotate(16.48)" fill="#602d82"/>
        <ellipse id="Ellipse_23-7" data-name="Ellipse 23" cx="2.263" cy="7.519" rx="2.263" ry="7.519" transform="translate(59.165 4.34) rotate(-73.52)" fill="#602d82"/>
        <rect id="Rectangle_38-7" data-name="Rectangle 38" width="3.011" height="15.038" transform="translate(64.241 112.61) rotate(-12.61)" fill="#602d82"/>
        <ellipse id="Ellipse_24-7" data-name="Ellipse 24" cx="7.519" cy="2.263" rx="7.519" ry="2.263" transform="translate(60.681 125.655) rotate(-12.61)" fill="#602d82"/>
        <rect id="Rectangle_39-7" data-name="Rectangle 39" width="3.011" height="15.038" transform="translate(3.328 64.259) rotate(-72.13)" fill="#602d82"/>
        <ellipse id="Ellipse_25-7" data-name="Ellipse 25" cx="7.519" cy="2.263" rx="7.519" ry="2.263" transform="translate(0 69.848) rotate(-72.13)" fill="#602d82"/>
        <rect id="Rectangle_40-7" data-name="Rectangle 40" width="3.011" height="15.038" transform="translate(113.345 65.671) rotate(-112.12)" fill="#602d82"/>
        <ellipse id="Ellipse_26-7" data-name="Ellipse 26" cx="2.263" cy="7.519" rx="2.263" ry="7.519" transform="translate(121.115 53.095) rotate(-22.12)" fill="#602d82"/>
        <rect id="Rectangle_41-7" data-name="Rectangle 41" width="3.011" height="15.038" transform="translate(21.207 20.911) rotate(-45)" fill="#602d82"/>
        <ellipse id="Ellipse_27-7" data-name="Ellipse 27" cx="7.519" cy="2.263" rx="7.519" ry="2.263" transform="translate(15.712 24.37) rotate(-45)" fill="#602d82"/>
        <rect id="Rectangle_42-7" data-name="Rectangle 42" width="3.011" height="15.038" transform="translate(102.734 100.576) rotate(-45)" fill="#602d82"/>
        <ellipse id="Ellipse_28-7" data-name="Ellipse 28" cx="7.519" cy="2.263" rx="7.519" ry="2.263" transform="translate(106.727 113.512) rotate(-45)" fill="#602d82"/>
        <rect id="Rectangle_43-7" data-name="Rectangle 43" width="3.011" height="15.038" transform="translate(102.573 31.55) rotate(-135)" fill="#602d82"/>
        <ellipse id="Ellipse_29-7" data-name="Ellipse 29" cx="2.263" cy="7.519" rx="2.263" ry="7.519" transform="translate(104.842 16.93) rotate(-45)" fill="#602d82"/>
        <rect id="Rectangle_44-7" data-name="Rectangle 44" width="3.011" height="15.038" transform="translate(19.165 111.217) rotate(-135)" fill="#602d82"/>
        <ellipse id="Ellipse_30-7" data-name="Ellipse 30" cx="2.263" cy="7.519" rx="2.263" ry="7.519" transform="translate(11.983 106.07) rotate(-45)" fill="#602d82"/>
        <rect id="Rectangle_45-7" data-name="Rectangle 45" width="2.787" height="13.953" transform="matrix(0.696, -0.718, 0.718, 0.696, 41.806, 11.097)" fill="#602d82"/>
        <ellipse id="Ellipse_31-7" data-name="Ellipse 31" cx="6.976" cy="2.095" rx="6.976" ry="2.095" transform="matrix(0.696, -0.718, 0.718, 0.696, 36.771, 14.404)" fill="#602d82"/>
        <rect id="Rectangle_46-7" data-name="Rectangle 46" width="2.787" height="13.953" transform="translate(83.684 105.927) rotate(-22.5)" fill="#602d82"/>
        <ellipse id="Ellipse_32-7" data-name="Ellipse 32" cx="6.976" cy="2.095" rx="6.976" ry="2.095" transform="translate(82.519 118.442) rotate(-22.5)" fill="#602d82"/>
        <rect id="Rectangle_47-7" data-name="Rectangle 47" width="2.787" height="13.953" transform="translate(13.039 87.351) rotate(-112.5)" fill="#602d82"/>
        <ellipse id="Ellipse_33-7" data-name="Ellipse 33" cx="2.095" cy="6.976" rx="2.095" ry="6.976" transform="translate(8.723 80.377) rotate(-22.5)" fill="#602d82"/>
        <rect id="Rectangle_48-7" data-name="Rectangle 48" width="2.787" height="13.953" transform="translate(105.925 47.307) rotate(-112.5)" fill="#602d82"/>
        <ellipse id="Ellipse_34-7" data-name="Ellipse 34" cx="2.095" cy="6.976" rx="2.095" ry="6.976" transform="translate(113.085 35.6) rotate(-22.5)" fill="#602d82"/>
        <rect id="Rectangle_49-7" data-name="Rectangle 49" width="2.774" height="13.889" transform="translate(13.866 43.82) rotate(-67.557)" fill="#602d82"/>
        <ellipse id="Ellipse_35-7" data-name="Ellipse 35" cx="6.976" cy="2.095" rx="6.976" ry="2.095" transform="translate(10.579 48.743) rotate(-67.5)" fill="#602d82"/>
        <rect id="Rectangle_50-7" data-name="Rectangle 50" width="2.787" height="13.953" transform="translate(108.819 82.009) rotate(-67.5)" fill="#602d82"/>
        <ellipse id="Ellipse_36-7" data-name="Ellipse 36" cx="6.976" cy="2.095" rx="6.976" ry="2.095" transform="translate(116.834 91.68) rotate(-67.5)" fill="#602d82"/>
        <rect id="Rectangle_51-7" data-name="Rectangle 51" width="2.787" height="13.953" transform="translate(83.886 25.934) rotate(-157.5)" fill="#602d82"/>
        <ellipse id="Ellipse_37-7" data-name="Ellipse 37" cx="2.095" cy="6.976" rx="2.095" ry="6.976" transform="translate(80.653 12.575) rotate(-67.5)" fill="#602d82"/>
        <rect id="Rectangle_52-7" data-name="Rectangle 52" width="2.787" height="13.953" transform="translate(45.721 118.812) rotate(-157.5)" fill="#602d82"/>
        <ellipse id="Ellipse_38-7" data-name="Ellipse 38" cx="2.095" cy="6.976" rx="2.095" ry="6.976" transform="translate(37.733 116.944) rotate(-67.5)" fill="#602d82"/>
      </g>
    </g>
  </g>
</svg>
