<svg xmlns="http://www.w3.org/2000/svg" width="708.516" height="450.985" viewBox="0 0 708.516 450.985">
  <g id="Group_139" data-name="Group 139" transform="translate(-289 -3898)">
    <rect id="Rectangle_342" data-name="Rectangle 342" width="34.54" height="141.811" rx="17" transform="matrix(0.796, -0.605, 0.605, 0.796, 384.049, 4164.174)" fill="#ffcb05"/>
    <rect id="Rectangle_343" data-name="Rectangle 343" width="34.981" height="143.652" rx="17" transform="translate(458.74 4274.806) rotate(-106.26)" fill="#ffcb05"/>
    <rect id="Rectangle_344" data-name="Rectangle 344" width="16.798" height="57.698" rx="8" transform="translate(582.524 4234.691) rotate(-160.07)" fill="#e6a07e"/>
    <rect id="Rectangle_345" data-name="Rectangle 345" width="34.54" height="54.351" rx="17" transform="translate(595.474 4224.973) rotate(-160.07)" fill="#e6a07e"/>
    <rect id="Rectangle_346" data-name="Rectangle 346" width="12.523" height="29.777" rx="6" transform="matrix(-0.971, 0.238, -0.238, -0.971, 580.084, 4207.697)" fill="#df734d"/>
    <path id="Subtraction_12" data-name="Subtraction 12" d="M-3836.2,19.391h-109.949a80.23,80.23,0,0,1-.67-10.353V0h111.288V9.038a80.37,80.37,0,0,1-.668,10.352Z" transform="translate(4256 4329.594)" fill="#173c55"/>
    <rect id="Rectangle_348" data-name="Rectangle 348" width="37.446" height="111.242" rx="8.66" transform="translate(345.998 4053.52)" fill="#df734d"/>
    <path id="Path_149" data-name="Path 149" d="M68.2,199.288c-30.934,0-56.3-28.514-57.47-63.906V91.834C10.73,55.408,36.6,25.6,68.23,25.6c15.809,0,30.188,7.456,40.611,19.461a71.362,71.362,0,0,1,16.889,46.773v41.219C125.7,169.48,99.818,199.288,68.2,199.288Z" transform="translate(294.597 3911.352)" fill="#e6a07e"/>
    <circle id="Ellipse_245" data-name="Ellipse 245" cx="22.717" cy="22.717" r="22.717" transform="translate(293.23 4005.256)" fill="#000a2b"/>
    <path id="Path_150" data-name="Path 150" d="M124.345,213.679v141.6H13.27v-141.6c0-36.822,25-66.949,55.553-66.949,15.216,0,29.153,7.532,39.226,19.674a74.207,74.207,0,0,1,16.3,47.275Z" transform="translate(295.921 3974.531)" fill="#ffcb05"/>
    <circle id="Ellipse_246" data-name="Ellipse 246" cx="42.513" cy="42.513" r="42.513" transform="translate(289 3919.013)" fill="#000a2b"/>
    <circle id="Ellipse_247" data-name="Ellipse 247" cx="30.112" cy="30.112" r="30.112" transform="translate(289.73 3967.749)" fill="#000a2b"/>
    <circle id="Ellipse_248" data-name="Ellipse 248" cx="33.307" cy="33.307" r="33.307" transform="translate(312.523 3909.823)" fill="#001635"/>
    <path id="Path_151" data-name="Path 151" d="M44.328,108.987a14.8,14.8,0,1,1,0-29.595h1.522V85.8a7.958,7.958,0,0,0-1.522-.137,8.46,8.46,0,1,0,0,16.9,7.956,7.956,0,0,0,1.522-.137v6.406A6.379,6.379,0,0,1,44.328,108.987Z" transform="translate(304.15 3939.405)" fill="#e6a07e"/>
    <path id="Path_152" data-name="Path 152" d="M42.113,100.467a8.46,8.46,0,1,1,0-16.9,7.958,7.958,0,0,1,1.522.137V100.33a7.957,7.957,0,0,1-1.522.137Z" transform="translate(306.365 3941.58)" fill="#df734d"/>
    <circle id="Ellipse_249" data-name="Ellipse 249" cx="44.369" cy="44.369" r="44.369" transform="translate(347.839 3898)" fill="#001635"/>
    <circle id="Ellipse_250" data-name="Ellipse 250" cx="7.699" cy="7.699" r="7.699" transform="translate(375.745 4020.274)" fill="#001635"/>
    <path id="Path_153" data-name="Path 153" d="M69.69,118.822a13.572,13.572,0,0,1,17.118-8.734" transform="translate(325.349 3955.071)" fill="none" stroke="#000" stroke-linecap="round" stroke-miterlimit="10" stroke-width="4"/>
    <circle id="Ellipse_251" data-name="Ellipse 251" cx="7.699" cy="7.699" r="7.699" transform="translate(404.822 4009.044)" fill="#001635"/>
    <circle id="Ellipse_252" data-name="Ellipse 252" cx="22.915" cy="22.915" r="22.915" transform="translate(341.799 3938.611)" fill="#001635"/>
    <rect id="Rectangle_349" data-name="Rectangle 349" width="12.796" height="30.416" rx="6" transform="translate(481.232 4267.043) rotate(-173.54)" fill="#df734d"/>
    <rect id="Rectangle_350" data-name="Rectangle 350" width="34.54" height="141.811" rx="17" transform="translate(310.147 4159.58) rotate(-16.98)" fill="#eebe08"/>
    <rect id="Rectangle_351" data-name="Rectangle 351" width="35.727" height="146.725" rx="17.863" transform="translate(343.729 4290.415) rotate(-85.73)" fill="#eebe08"/>
    <rect id="Rectangle_352" data-name="Rectangle 352" width="17.163" height="58.931" rx="8.582" transform="matrix(-0.764, -0.645, 0.645, -0.764, 475.533, 4294.312)" fill="#e6a07e"/>
    <rect id="Rectangle_353" data-name="Rectangle 353" width="35.27" height="55.507" rx="17.635" transform="matrix(-0.764, -0.645, 0.645, -0.764, 491.395, 4289.554)" fill="#e6a07e"/>
    <ellipse id="Ellipse_253" data-name="Ellipse 253" cx="114" cy="108" rx="114" ry="108" transform="translate(452 3904.986)" fill="#fff"/>
    <g id="Group_124" data-name="Group 124" transform="translate(0 2519.986)">
      <rect id="Rectangle_119" data-name="Rectangle 119" width="16" height="121" transform="translate(603.123 1444.063) rotate(45)" fill="#dc1c4b"/>
      <rect id="Rectangle_120" data-name="Rectangle 120" width="16" height="121" transform="translate(614.437 1529.623) rotate(135)" fill="#dc1c4b"/>
    </g>
    <g id="Group_136" data-name="Group 136" transform="translate(52 3)">
      <ellipse id="Ellipse_254" data-name="Ellipse 254" cx="112.758" cy="106.799" rx="112.758" ry="106.799" transform="translate(720 4047.923)" fill="#fff"/>
      <g id="Layer_2" data-name="Layer 2" transform="translate(810.873 4114.663)">
        <g id="Layer_1" data-name="Layer 1" transform="translate(0 0)">
          <g id="Group_37" data-name="Group 37">
            <path id="Path_49" data-name="Path 49" d="M6.195,72.89,48.62,28.158l3.664,3.482L79.669,2.78l6.078,5.789L58.393,37.408l3.813,3.632L19.781,85.761a6.921,6.921,0,0,1-9.773.267L6.462,82.653a6.921,6.921,0,0,1-.267-9.762Z" transform="translate(24.754 0.192)" fill="#cfe3ed"/>
            <rect id="Rectangle_103" data-name="Rectangle 103" width="5.116" height="30.676" rx="1.77" transform="matrix(-0.688, 0.726, -0.726, -0.688, 93.057, 43.889)" fill="#7b8f9d"/>
            <path id="Path_50" data-name="Path 50" d="M.6.673h0A2.136,2.136,0,0,1,3.631.588L14.558,10.948a2.136,2.136,0,0,1,.085,3.044h0a2.136,2.136,0,0,1-3.044.085L7.327,10.04.651,3.706A2.136,2.136,0,0,1,.6.673Z" transform="translate(99.874 0.003)" fill="#7b8f9d"/>
            <rect id="Rectangle_104" data-name="Rectangle 104" width="47.53" height="1.324" transform="matrix(-0.688, 0.726, -0.726, -0.688, 33.667, 85.174)" fill="#7b8f9d"/>
          </g>
        </g>
      </g>
      <g id="Group_134" data-name="Group 134" transform="translate(-65 -58)">
        <circle id="Ellipse_278" data-name="Ellipse 278" cx="18.5" cy="18.5" r="18.5" transform="translate(838.239 4189.253) rotate(17)" fill="red"/>
        <rect id="Rectangle_374" data-name="Rectangle 374" width="52" height="3" transform="translate(826.575 4203.464) rotate(17)" fill="#fff"/>
      </g>
      <g id="Group_135" data-name="Group 135" transform="translate(-3117.828 2467.674) rotate(-56)">
        <circle id="Ellipse_278-2" data-name="Ellipse 278" cx="11.148" cy="11.148" r="11.148" transform="translate(833.255 4189.253) rotate(17)" fill="red"/>
        <rect id="Rectangle_374-2" data-name="Rectangle 374" width="31.335" height="1.808" transform="translate(826.226 4197.817) rotate(17)" fill="#fff"/>
      </g>
    </g>
  </g>
</svg>
