<svg xmlns="http://www.w3.org/2000/svg" width="379.432" height="348.51" viewBox="0 0 379.432 348.51">
  <g id="Layer_2" data-name="Layer 2" transform="translate(3.999)">
    <g id="Layer_1" data-name="Layer 1" transform="translate(-3.999 0)">
      <g id="Group_64" data-name="Group 64">
        <circle id="Ellipse_94" data-name="Ellipse 94" cx="25.579" cy="25.579" r="25.579" transform="translate(61.092 43.514)" fill="#000a2b"/>
        <circle id="Ellipse_95" data-name="Ellipse 95" cx="25.579" cy="25.579" r="25.579" transform="translate(67.902 69.105)" fill="#000a2b"/>
        <circle id="Ellipse_96" data-name="Ellipse 96" cx="25.579" cy="25.579" r="25.579" transform="translate(140.44 55.725)" fill="#000a2b"/>
        <circle id="Ellipse_97" data-name="Ellipse 97" cx="11.124" cy="11.124" r="11.124" transform="translate(65.784 96.424)" fill="#e6a07e"/>
        <circle id="Ellipse_98" data-name="Ellipse 98" cx="6.363" cy="6.363" r="6.363" transform="translate(70.545 101.185)" fill="#df734d"/>
        <circle id="Ellipse_99" data-name="Ellipse 99" cx="11.124" cy="11.124" r="11.124" transform="translate(166.534 98.015)" fill="#e6a07e"/>
        <rect id="Rectangle_156" data-name="Rectangle 156" width="9.419" height="22.398" rx="2.9" transform="matrix(-0.432, -0.902, 0.902, -0.432, 68.31, 312.315)" fill="#df734d"/>
        <circle id="Ellipse_100" data-name="Ellipse 100" cx="6.363" cy="6.363" r="6.363" transform="translate(171.295 102.776)" fill="#df734d"/>
        <rect id="Rectangle_157" data-name="Rectangle 157" width="25.98" height="106.667" rx="11.35" transform="translate(223.665 189) rotate(107.7)" fill="#3ebdd3"/>
        <rect id="Rectangle_158" data-name="Rectangle 158" width="25.98" height="106.667" rx="11.35" transform="translate(135.466 154.658) rotate(72.91)" fill="#3ebdd3"/>
        <rect id="Rectangle_159" data-name="Rectangle 159" width="28.166" height="83.674" rx="8.66" transform="translate(113.761 123.674)" fill="#df734d"/>
        <rect id="Rectangle_160" data-name="Rectangle 160" width="99.64" height="130.644" rx="43.53" transform="translate(78.019 35.983)" fill="#e6a07e"/>
        <circle id="Ellipse_101" data-name="Ellipse 101" cx="33.373" cy="33.373" r="33.373" transform="translate(61.092 6.02)" fill="#001635"/>
        <circle id="Ellipse_102" data-name="Ellipse 102" cx="25.053" cy="25.053" r="25.053" transform="translate(114.002 15.588)" fill="#001635"/>
        <circle id="Ellipse_103" data-name="Ellipse 103" cx="17.087" cy="17.087" r="17.087" transform="translate(153.178 41.03)" fill="#001635"/>
        <path id="Path_73" data-name="Path 73" d="M163.945,206.938V313.376H63.23V206.938a50.358,50.358,0,0,1,100.716,0Z" transform="translate(13.713 22.625)" fill="#ffcb05"/>
        <rect id="Rectangle_161" data-name="Rectangle 161" width="25.98" height="106.667" rx="11.35" transform="translate(243.056 140.778) rotate(56.95)" fill="#ffcb05"/>
        <rect id="Rectangle_162" data-name="Rectangle 162" width="25.98" height="106.667" rx="11.35" transform="translate(334.129 173.005) rotate(108.08)" fill="#ffcb05"/>
        <rect id="Rectangle_163" data-name="Rectangle 163" width="25.941" height="106.507" rx="11.333" transform="translate(94.062 184.299) rotate(60.611)" fill="#ffcb05"/>
        <rect id="Rectangle_164" data-name="Rectangle 164" width="25.98" height="106.667" rx="11.35" transform="matrix(0.885, -0.466, 0.466, 0.885, 0, 235.625)" fill="#ffcb05"/>
        <rect id="Rectangle_165" data-name="Rectangle 165" width="12.635" height="43.399" rx="3.88" transform="translate(49.073 319.431) rotate(-81.86)" fill="#e6a07e"/>
        <rect id="Rectangle_166" data-name="Rectangle 166" width="25.98" height="40.881" rx="7.98" transform="translate(58.136 326.99) rotate(-81.951)" fill="#e6a07e"/>
        <path id="Path_74" data-name="Path 74" d="M79.77,113.666a31.279,31.279,0,0,0,8.275,21.173,31.29,31.29,0,0,1,46.352,0,31.279,31.279,0,0,0,8.229-21.139v-.458L81.178,104.43a31.531,31.531,0,0,0-1.408,9.236Z" transform="translate(16.103 15.09)" fill="#000a2b"/>
        <ellipse id="Ellipse_104" data-name="Ellipse 104" cx="23.176" cy="10.266" rx="23.176" ry="10.266" transform="translate(104.102 139.628)" fill="#da545c"/>
        <circle id="Ellipse_105" data-name="Ellipse 105" cx="25.579" cy="25.579" r="25.579" transform="translate(187.867 37.494)" fill="#000a2b"/>
        <circle id="Ellipse_106" data-name="Ellipse 106" cx="25.579" cy="25.579" r="25.579" transform="translate(194.677 63.085)" fill="#000a2b"/>
        <circle id="Ellipse_107" data-name="Ellipse 107" cx="25.579" cy="25.579" r="25.579" transform="translate(267.215 49.705)" fill="#000a2b"/>
        <circle id="Ellipse_108" data-name="Ellipse 108" cx="11.124" cy="11.124" r="11.124" transform="translate(291.433 90.404)" fill="#e6a07e"/>
        <circle id="Ellipse_109" data-name="Ellipse 109" cx="6.363" cy="6.363" r="6.363" transform="translate(296.194 95.165)" fill="#df734d"/>
        <circle id="Ellipse_110" data-name="Ellipse 110" cx="11.124" cy="11.124" r="11.124" transform="translate(190.683 91.994)" fill="#e6a07e"/>
        <rect id="Rectangle_167" data-name="Rectangle 167" width="9.419" height="22.398" rx="2.9" transform="matrix(0.432, -0.902, 0.902, 0.432, 290.944, 296.691)" fill="#df734d"/>
        <circle id="Ellipse_111" data-name="Ellipse 111" cx="6.363" cy="6.363" r="6.363" transform="translate(195.444 96.756)" fill="#df734d"/>
        <rect id="Rectangle_168" data-name="Rectangle 168" width="28.166" height="83.674" rx="8.66" transform="translate(265.716 201.317) rotate(180)" fill="#df734d"/>
        <rect id="Rectangle_169" data-name="Rectangle 169" width="99.64" height="130.644" rx="43.53" transform="translate(301.447 160.607) rotate(180)" fill="#e6a07e"/>
        <circle id="Ellipse_112" data-name="Ellipse 112" cx="33.373" cy="33.373" r="33.373" transform="translate(187.867)" fill="#001635"/>
        <circle id="Ellipse_113" data-name="Ellipse 113" cx="25.053" cy="25.053" r="25.053" transform="translate(240.777 9.568)" fill="#001635"/>
        <circle id="Ellipse_114" data-name="Ellipse 114" cx="17.087" cy="17.087" r="17.087" transform="translate(279.953 35.01)" fill="#001635"/>
        <g id="Group_61" data-name="Group 61" transform="translate(221.069 82.884)">
          <circle id="Ellipse_115" data-name="Ellipse 115" cx="5.791" cy="5.791" r="5.791" transform="translate(50.129)" fill="#001635"/>
          <circle id="Ellipse_116" data-name="Ellipse 116" cx="5.791" cy="5.791" r="5.791" fill="#001635"/>
        </g>
        <path id="Path_75" data-name="Path 75" d="M172.33,201.678v106.5H273.046v-106.5a50.358,50.358,0,1,0-100.715,0Z" transform="translate(29.477 21.865)" fill="#3ebdd3"/>
        <g id="Group_62" data-name="Group 62" transform="translate(16.392 187.109)">
          <rect id="Rectangle_170" data-name="Rectangle 170" width="12.635" height="43.399" rx="3.88" transform="translate(29.628 0) rotate(27.68)" fill="#e6a07e"/>
          <rect id="Rectangle_171" data-name="Rectangle 171" width="25.98" height="40.881" rx="7.98" transform="translate(18.991 5.943) rotate(27.68)" fill="#e6a07e"/>
          <rect id="Rectangle_172" data-name="Rectangle 172" width="9.419" height="22.398" rx="2.9" transform="translate(29.844 20.524) rotate(-6.03)" fill="#df734d"/>
        </g>
        <rect id="Rectangle_173" data-name="Rectangle 173" width="25.98" height="106.667" rx="11.35" transform="translate(378.711 230.524) rotate(119.33)" fill="#3ebdd3"/>
        <rect id="Rectangle_174" data-name="Rectangle 174" width="25.98" height="106.667" rx="11.35" transform="matrix(-0.885, -0.466, 0.466, -0.885, 329.733, 323.997)" fill="#3ebdd3"/>
        <rect id="Rectangle_175" data-name="Rectangle 175" width="12.635" height="43.399" rx="3.88" transform="translate(287.442 319.554) rotate(-98.14)" fill="#e6a07e"/>
        <rect id="Rectangle_176" data-name="Rectangle 176" width="25.98" height="40.881" rx="7.98" transform="translate(280.79 327.245) rotate(-98.14)" fill="#e6a07e"/>
        <path id="Path_76" data-name="Path 76" d="M234.14,122.61a14.18,14.18,0,0,1-18.85,6.867" transform="translate(35.685 17.716)" fill="none" stroke="#000" stroke-linecap="round" stroke-miterlimit="10" stroke-width="4"/>
        <path id="Path_77" data-name="Path 77" d="M133.724,82.212a7.851,7.851,0,0,0-11.124,0" transform="translate(22.292 11.545)" fill="none" stroke="#000" stroke-linecap="round" stroke-miterlimit="10" stroke-width="4"/>
        <path id="Path_78" data-name="Path 78" d="M95.484,78.76a7.874,7.874,0,0,0-11.124,0" transform="translate(16.766 11.048)" fill="none" stroke="#000" stroke-linecap="round" stroke-miterlimit="10" stroke-width="4"/>
        <g id="Group_63" data-name="Group 63" transform="translate(305.036 175.449)">
          <rect id="Rectangle_177" data-name="Rectangle 177" width="12.635" height="43.399" rx="3.88" transform="translate(32.141 41.619) rotate(163.53)" fill="#e6a07e"/>
          <rect id="Rectangle_178" data-name="Rectangle 178" width="25.98" height="40.881" rx="7.98" transform="translate(40.706 47.089) rotate(163.53)" fill="#e6a07e"/>
          <rect id="Rectangle_179" data-name="Rectangle 179" width="9.419" height="22.398" rx="2.9" transform="translate(8.995 41.453) rotate(-162.75)" fill="#df734d"/>
        </g>
        <path id="Path_79" data-name="Path 79" d="M163.945,300.128v-6.8H63.23v6.8a49.476,49.476,0,0,0,.378,6h99.96A49.473,49.473,0,0,0,163.945,300.128Z" transform="translate(13.713 42.385)" fill="#173c55"/>
        <path id="Path_80" data-name="Path 80" d="M273.086,294.858v-6.8H172.37v6.8a50.218,50.218,0,0,0,1.465,12.017h97.82a50.231,50.231,0,0,0,1.431-12.017Z" transform="translate(29.483 41.623)" fill="#173c55"/>
      </g>
    </g>
  </g>
</svg>
